<svg width="32" height="33" viewBox="0 0 32 33" fill="none" xmlns="http://www.w3.org/2000/svg">
<path d="M16.0309 9.5899C17.1335 9.5899 18.0329 10.4893 18.0329 11.5918C18.0329 12.6944 17.1335 13.5937 16.0309 13.5937C14.9285 13.5937 14.0291 12.6944 14.0291 11.5918C14 10.4893 14.8995 9.5899 16.0309 9.5899Z" fill="white"/>
<path fill-rule="evenodd" clip-rule="evenodd" d="M16 0.121582C7.16344 0.121582 0 7.28503 0 16.1216C0 24.9581 7.16344 32.1216 16 32.1216C24.8366 32.1216 32 24.9581 32 16.1216C32 7.28503 24.8366 0.121582 16 0.121582ZM16.0309 16.437C18.7003 16.437 20.8763 14.261 20.8763 11.5918C20.8763 8.9226 18.7003 6.74658 16.0309 6.74658C13.3327 6.74658 11.1567 8.9226 11.1567 11.5918C11.1567 14.261 13.3327 16.437 16.0309 16.437ZM17.9749 20.412C18.9613 20.1798 19.9188 19.8026 20.7892 19.2514C21.4565 18.8452 21.6596 17.9458 21.2244 17.2785C20.8183 16.6112 19.9188 16.4081 19.2515 16.8433C17.2785 18.0909 14.6964 18.0909 12.7235 16.8433C12.0562 16.4372 11.1858 16.6112 10.7506 17.2785C10.3734 17.9458 10.5765 18.8162 11.2438 19.2224C12.1142 19.7737 13.0716 20.1508 14.0581 20.3829L11.3599 23.0812C10.8086 23.6325 10.8086 24.5319 11.3599 25.0832C11.65 25.3733 11.9982 25.4893 12.3753 25.4893C12.7525 25.4893 13.1007 25.3442 13.3908 25.0832L16.06 22.4138L18.7293 25.0832C19.2805 25.6344 20.18 25.6344 20.7312 25.0832C21.2824 24.5319 21.2824 23.6325 20.7312 23.0812L17.9749 20.412Z" fill="white"/>
</svg>
