<svg width="60" height="61" viewBox="0 0 60 61" fill="none" xmlns="http://www.w3.org/2000/svg">
<path d="M15 22.6216C15 26.5998 16.5804 30.4151 19.3934 33.2282C22.2064 36.0412 26.0218 37.6216 30 37.6216C33.9782 37.6216 37.7936 36.0412 40.6066 33.2282C43.4196 30.4151 45 26.5998 45 22.6216C45 18.6433 43.4196 14.828 40.6066 12.015C37.7936 9.20194 33.9782 7.62158 30 7.62158C26.0218 7.62158 22.2064 9.20194 19.3934 12.015C16.5804 14.828 15 18.6433 15 22.6216Z" stroke="#191919" stroke-linecap="round" stroke-linejoin="round"/>
<path d="M29.9999 37.6216L38.4999 52.3466L42.4949 44.2641L51.4899 44.8441L42.9899 30.1216M17.0049 30.1216L8.50488 44.8466L17.4999 44.2641L21.4949 52.3441L29.9949 37.6216" stroke="#191919" stroke-linecap="round" stroke-linejoin="round"/>
</svg>
