<svg width="60" height="61" viewBox="0 0 60 61" fill="none" xmlns="http://www.w3.org/2000/svg">
<path d="M35 7.62158V17.6216C35 18.2846 35.2634 18.9205 35.7322 19.3893C36.2011 19.8582 36.837 20.1216 37.5 20.1216H47.5" stroke="#191919" stroke-linecap="round" stroke-linejoin="round"/>
<path d="M22.5 22.6216H25M22.5 32.6216H37.5M22.5 42.6216H37.5M42.5 52.6216H17.5C16.1739 52.6216 14.9021 52.0948 13.9645 51.1571C13.0268 50.2194 12.5 48.9477 12.5 47.6216V12.6216C12.5 11.2955 13.0268 10.0237 13.9645 9.08605C14.9021 8.14837 16.1739 7.62158 17.5 7.62158H35L47.5 20.1216V47.6216C47.5 48.9477 46.9732 50.2194 46.0355 51.1571C45.0979 52.0948 43.8261 52.6216 42.5 52.6216Z" stroke="#191919" stroke-linecap="round" stroke-linejoin="round"/>
</svg>
