<svg width="60" height="61" viewBox="0 0 60 61" fill="none" xmlns="http://www.w3.org/2000/svg">
<path d="M7.5 52.6216V47.6216C7.5 44.9694 8.55357 42.4259 10.4289 40.5505C12.3043 38.6752 14.8478 37.6216 17.5 37.6216H27.5C30.1522 37.6216 32.6957 38.6752 34.5711 40.5505C36.4464 42.4259 37.5 44.9694 37.5 47.6216V52.6216M40 7.94658C42.151 8.49733 44.0576 9.74833 45.4191 11.5024C46.7806 13.2564 47.5196 15.4137 47.5196 17.6341C47.5196 19.8545 46.7806 22.0118 45.4191 23.7658C44.0576 25.5198 42.151 26.7708 40 27.3216M52.5 52.6216V47.6216C52.4873 45.4145 51.7448 43.2736 50.3882 41.5326C49.0316 39.7916 47.1371 38.5483 45 37.9966M12.5 17.6216C12.5 20.2737 13.5536 22.8173 15.4289 24.6927C17.3043 26.568 19.8478 27.6216 22.5 27.6216C25.1522 27.6216 27.6957 26.568 29.5711 24.6927C31.4464 22.8173 32.5 20.2737 32.5 17.6216C32.5 14.9694 31.4464 12.4259 29.5711 10.5505C27.6957 8.67515 25.1522 7.62158 22.5 7.62158C19.8478 7.62158 17.3043 8.67515 15.4289 10.5505C13.5536 12.4259 12.5 14.9694 12.5 17.6216Z" stroke="#191919" stroke-linecap="round" stroke-linejoin="round"/>
</svg>
