<svg width="32" height="33" viewBox="0 0 32 33" fill="none" xmlns="http://www.w3.org/2000/svg">
<path fill-rule="evenodd" clip-rule="evenodd" d="M12.6 21.8216C13.6 22.4216 14.8 22.7216 16 22.7216C19.7 22.7216 22.6 19.7216 22.6 16.2216C22.6 14.4216 22 12.8216 20.7 11.5216C19.4 10.3216 17.8 9.62158 16 9.62158C12.4 9.62158 9.39999 12.6216 9.39999 16.2216C9.39999 17.4216 9.7 18.6216 10.4 19.7216L10.6 20.0216L9.89999 22.4216L12.4 21.7216L12.6 21.8216ZM18.2 17.1216C18.4 17.1216 19.4 17.6216 19.6 17.7216C19.6311 17.7372 19.6623 17.7503 19.6931 17.7633C19.8599 17.8337 20.0156 17.8994 20.1 18.3216C20.2 18.3216 20.2 18.7216 20 19.2216C19.9 19.6216 19.1 20.1216 18.7 20.1216C18.6322 20.1216 18.5673 20.1273 18.498 20.1335C18.1582 20.1635 17.712 20.203 16.3 19.6216C14.5475 18.9206 13.3325 17.2215 12.9913 16.7444C12.9431 16.677 12.9124 16.634 12.9 16.6216C12.883 16.5875 12.8485 16.5332 12.8031 16.4615C12.5819 16.1122 12.1 15.3513 12.1 14.5216C12.1 13.5216 12.6 13.0216 12.8 12.8216C13 12.6216 13.2 12.6216 13.3 12.6216H13.7C13.8 12.6216 14 12.6216 14.1 12.9216C14.3 13.3216 14.7 14.3216 14.7 14.4216C14.7 14.4549 14.7111 14.4883 14.7222 14.5216C14.7445 14.5882 14.7667 14.6549 14.7 14.7216C14.65 14.7716 14.625 14.8216 14.6 14.8716C14.575 14.9216 14.55 14.9716 14.5 15.0216L14.2 15.3216C14.1 15.4216 14 15.5216 14.1 15.7216C14.2 15.9216 14.6 16.6216 15.2 17.1216C15.8751 17.7123 16.4078 17.9469 16.6778 18.0659C16.7278 18.0879 16.7688 18.106 16.8 18.1216C17 18.1216 17.1 18.1216 17.2 18.0216C17.25 17.9216 17.375 17.7716 17.5 17.6216C17.625 17.4716 17.75 17.3216 17.8 17.2216C17.9 17.0216 18 17.0216 18.2 17.1216Z" fill="white"/>
<path fill-rule="evenodd" clip-rule="evenodd" d="M0 16.1216C0 7.28503 7.16344 0.121582 16 0.121582C24.8366 0.121582 32 7.28503 32 16.1216C32 24.9581 24.8366 32.1216 16 32.1216C7.16344 32.1216 0 24.9581 0 16.1216ZM16 8.12158C18.1 8.12158 20.1 8.92159 21.6 10.4216C23.1 11.9216 24 13.9216 24 16.0216C24 20.4216 20.4 24.0216 16 24.0216C14.7 24.0216 13.4 23.6216 12.2 23.0216L8 24.1216L9.10001 20.1216C8.40001 18.9216 8 17.5216 8 16.1216C8 11.7216 11.6 8.12158 16 8.12158Z" fill="white"/>
</svg>
