<svg width="32" height="33" viewBox="0 0 32 33" fill="none" xmlns="http://www.w3.org/2000/svg">
<path fill-rule="evenodd" clip-rule="evenodd" d="M0 16.1216C0 7.28503 7.16344 0.121582 16 0.121582C24.8366 0.121582 32 7.28503 32 16.1216C32 24.9581 24.8366 32.1216 16 32.1216C7.16344 32.1216 0 24.9581 0 16.1216ZM16 8.12158C20.4 8.12158 24 11.7216 24 16.1216C24 20.1216 21.1 23.5216 17.1 24.1216V18.4216H19L19.4 16.1216H17.2V14.6216C17.2 14.0216 17.5 13.4216 18.5 13.4216H19.5V11.4216C19.5 11.4216 18.6 11.2216 17.7 11.2216C15.9 11.2216 14.7 12.3216 14.7 14.3216V16.1216H12.7V18.4216H14.7V24.0216C10.9 23.4216 8 20.1216 8 16.1216C8 11.7216 11.6 8.12158 16 8.12158Z" fill="white"/>
</svg>
