<svg width="1140" height="617" fill="none" xmlns="http://www.w3.org/2000/svg"><path d="M11 459.121s204.775 1.026 337 0c50.572-.392 19.412-9.502 72-10.621 51.426-1.094 147.624-5.98 199-8.5 80.871-3.967 118.307-7.646 194-14 34.968-2.935 55.331-.007 89.5-8 28.93-6.768 71.5-26 71.5-26" stroke="#000" stroke-width="2" stroke-linecap="round"/><path d="M74.766 607.736v1.386H66.45c.036-.708.144-1.326.324-1.854.18-.528.456-1.002.828-1.422a8.189 8.189 0 0 1 1.116-1.062c.36-.276.87-.618 1.53-1.026 1.032-.648 1.71-1.134 2.034-1.458.672-.66 1.008-1.392 1.008-2.196 0-.708-.228-1.284-.684-1.728-.456-.456-1.05-.684-1.782-.684-.876 0-1.506.306-1.89.918-.372.6-.57 1.362-.594 2.286h-1.548v-.342c0-1.26.372-2.274 1.116-3.042.756-.768 1.752-1.152 2.988-1.152 1.212 0 2.178.336 2.898 1.008.72.672 1.08 1.572 1.08 2.7 0 .48-.084.936-.252 1.368-.156.42-.336.774-.54 1.062-.192.288-.492.594-.9.918-.396.324-.726.576-.99.756a74.6 74.6 0 0 1-1.134.702c-.984.588-1.638 1.044-1.962 1.368-.456.456-.75.954-.882 1.494h6.552Zm6.222-11.376c.768 0 1.422.144 1.962.432.552.276.972.618 1.26 1.026.288.408.516.942.684 1.602a9.74 9.74 0 0 1 .306 1.764c.036.516.054 1.14.054 1.872 0 .672-.03 1.278-.09 1.818a8.3 8.3 0 0 1-.342 1.692c-.168.588-.402 1.08-.702 1.476-.3.384-.708.702-1.224.954s-1.128.378-1.836.378c-.744 0-1.392-.126-1.944-.378-.54-.264-.96-.588-1.26-.972-.3-.384-.54-.87-.72-1.458a9.487 9.487 0 0 1-.324-1.692 21.171 21.171 0 0 1-.072-1.854c0-.6.012-1.122.036-1.566.036-.444.096-.942.18-1.494.096-.564.24-1.038.432-1.422a5.14 5.14 0 0 1 .738-1.116c.3-.348.69-.612 1.17-.792.492-.18 1.056-.27 1.692-.27Zm.99 1.584a2.185 2.185 0 0 0-.99-.216c-.372 0-.702.072-.99.216a2.388 2.388 0 0 0-.702.468c-.18.18-.336.45-.468.81a8.14 8.14 0 0 0-.288.882c-.048.24-.09.588-.126 1.044-.036.444-.054.762-.054.954v.918c0 .42.006.768.018 1.044.012.276.042.636.09 1.08.048.444.132.816.252 1.116.12.288.27.582.45.882.18.288.426.51.738.666.324.144.696.216 1.116.216.36 0 .678-.066.954-.198.288-.132.522-.288.702-.468.18-.18.33-.432.45-.756a7.23 7.23 0 0 0 .288-.864c.06-.252.102-.582.126-.99.036-.42.054-.726.054-.918.012-.204.018-.498.018-.882v-.9c0-.18-.018-.492-.054-.936a6.733 6.733 0 0 0-.144-1.026 5.77 5.77 0 0 0-.27-.882c-.132-.348-.288-.612-.468-.792a2.388 2.388 0 0 0-.702-.468Zm10.47-1.566v12.744h-1.674v-9.234H87.57v-1.152c1.032 0 1.848-.168 2.448-.504.612-.336 1.02-.954 1.224-1.854h1.206Zm8.544-.018c.768 0 1.422.144 1.962.432.552.276.972.618 1.26 1.026.288.408.516.942.684 1.602a9.74 9.74 0 0 1 .306 1.764c.036.516.054 1.14.054 1.872 0 .672-.03 1.278-.09 1.818a8.3 8.3 0 0 1-.342 1.692c-.168.588-.402 1.08-.702 1.476-.3.384-.708.702-1.224.954s-1.128.378-1.836.378c-.744 0-1.392-.126-1.944-.378-.54-.264-.96-.588-1.26-.972-.3-.384-.54-.87-.72-1.458a9.487 9.487 0 0 1-.324-1.692 21.171 21.171 0 0 1-.072-1.854c0-.6.012-1.122.036-1.566.036-.444.096-.942.18-1.494.096-.564.24-1.038.432-1.422a5.14 5.14 0 0 1 .738-1.116c.3-.348.69-.612 1.17-.792.492-.18 1.056-.27 1.692-.27Zm.99 1.584a2.185 2.185 0 0 0-.99-.216c-.372 0-.702.072-.99.216a2.387 2.387 0 0 0-.702.468c-.18.18-.336.45-.468.81a8.14 8.14 0 0 0-.288.882c-.048.24-.09.588-.126 1.044-.036.444-.054.762-.054.954v.918c0 .42.006.768.018 1.044.012.276.042.636.09 1.08.048.444.132.816.252 1.116.12.288.27.582.45.882.18.288.426.51.738.666.324.144.696.216 1.116.216.36 0 .678-.066.954-.198.288-.132.522-.288.702-.468.18-.18.33-.432.45-.756a7.23 7.23 0 0 0 .288-.864c.06-.252.102-.582.126-.99.036-.42.054-.726.054-.918.012-.204.018-.498.018-.882v-.9c0-.18-.018-.492-.054-.936a6.733 6.733 0 0 0-.144-1.026 5.77 5.77 0 0 0-.27-.882c-.132-.348-.288-.612-.468-.792a2.388 2.388 0 0 0-.702-.468Zm324.784 9.792v1.386h-8.316c.036-.708.144-1.326.324-1.854.18-.528.456-1.002.828-1.422a8.189 8.189 0 0 1 1.116-1.062c.36-.276.87-.618 1.53-1.026 1.032-.648 1.71-1.134 2.034-1.458.672-.66 1.008-1.392 1.008-2.196 0-.708-.228-1.284-.684-1.728-.456-.456-1.05-.684-1.782-.684-.876 0-1.506.306-1.89.918-.372.6-.57 1.362-.594 2.286h-1.548v-.342c0-1.26.372-2.274 1.116-3.042.756-.768 1.752-1.152 2.988-1.152 1.212 0 2.178.336 2.898 1.008.72.672 1.08 1.572 1.08 2.7 0 .48-.084.936-.252 1.368-.156.42-.336.774-.54 1.062-.192.288-.492.594-.9.918-.396.324-.726.576-.99.756a74.6 74.6 0 0 1-1.134.702c-.984.588-1.638 1.044-1.962 1.368-.456.456-.75.954-.882 1.494h6.552Zm6.222-11.376c.768 0 1.422.144 1.962.432.552.276.972.618 1.26 1.026.288.408.516.942.684 1.602a9.74 9.74 0 0 1 .306 1.764c.036.516.054 1.14.054 1.872 0 .672-.03 1.278-.09 1.818a8.3 8.3 0 0 1-.342 1.692c-.168.588-.402 1.08-.702 1.476-.3.384-.708.702-1.224.954s-1.128.378-1.836.378c-.744 0-1.392-.126-1.944-.378-.54-.264-.96-.588-1.26-.972-.3-.384-.54-.87-.72-1.458a9.487 9.487 0 0 1-.324-1.692 21.171 21.171 0 0 1-.072-1.854c0-.6.012-1.122.036-1.566.036-.444.096-.942.18-1.494.096-.564.24-1.038.432-1.422a5.14 5.14 0 0 1 .738-1.116c.3-.348.69-.612 1.17-.792.492-.18 1.056-.27 1.692-.27Zm.99 1.584a2.185 2.185 0 0 0-.99-.216c-.372 0-.702.072-.99.216a2.388 2.388 0 0 0-.702.468c-.18.18-.336.45-.468.81a8.14 8.14 0 0 0-.288.882c-.048.24-.09.588-.126 1.044-.036.444-.054.762-.054.954v.918c0 .42.006.768.018 1.044.012.276.042.636.09 1.08.048.444.132.816.252 1.116.12.288.27.582.45.882.18.288.426.51.738.666.324.144.696.216 1.116.216.36 0 .678-.066.954-.198.288-.132.522-.288.702-.468.18-.18.33-.432.45-.756a7.23 7.23 0 0 0 .288-.864c.06-.252.102-.582.126-.99.036-.42.054-.726.054-.918.012-.204.018-.498.018-.882v-.9c0-.18-.018-.492-.054-.936a6.733 6.733 0 0 0-.144-1.026 5.77 5.77 0 0 0-.27-.882c-.132-.348-.288-.612-.468-.792a2.388 2.388 0 0 0-.702-.468Zm10.47-1.566v12.744h-1.674v-9.234h-3.204v-1.152c1.032 0 1.848-.168 2.448-.504.612-.336 1.02-.954 1.224-1.854h1.206Zm12.036.216v1.35h-5.166l-.756 3.798c.624-.672 1.482-1.008 2.574-1.008 1.2 0 2.172.39 2.916 1.17.744.768 1.116 1.77 1.116 3.006 0 1.296-.408 2.364-1.224 3.204-.816.84-1.878 1.26-3.186 1.26-1.212 0-2.196-.336-2.952-1.008-.744-.672-1.134-1.566-1.17-2.682h1.548c.06.708.33 1.284.81 1.728.48.444 1.074.666 1.782.666.792 0 1.452-.288 1.98-.864.528-.576.792-1.29.792-2.142 0-.888-.258-1.608-.774-2.16-.516-.564-1.188-.846-2.016-.846-1.056 0-1.872.414-2.448 1.242l-1.314-.09 1.188-6.624h6.3Zm-205.718 11.142v1.386h-8.316c.036-.708.144-1.326.324-1.854.18-.528.456-1.002.828-1.422a8.189 8.189 0 0 1 1.116-1.062c.36-.276.87-.618 1.53-1.026 1.032-.648 1.71-1.134 2.034-1.458.672-.66 1.008-1.392 1.008-2.196 0-.708-.228-1.284-.684-1.728-.456-.456-1.05-.684-1.782-.684-.876 0-1.506.306-1.89.918-.372.6-.57 1.362-.594 2.286h-1.548v-.342c0-1.26.372-2.274 1.116-3.042.756-.768 1.752-1.152 2.988-1.152 1.212 0 2.178.336 2.898 1.008.72.672 1.08 1.572 1.08 2.7 0 .48-.084.936-.252 1.368-.156.42-.336.774-.54 1.062-.192.288-.492.594-.9.918-.396.324-.726.576-.99.756a74.6 74.6 0 0 1-1.134.702c-.984.588-1.638 1.044-1.962 1.368-.456.456-.75.954-.882 1.494h6.552Zm6.222-11.376c.768 0 1.422.144 1.962.432.552.276.972.618 1.26 1.026.288.408.516.942.684 1.602a9.74 9.74 0 0 1 .306 1.764c.036.516.054 1.14.054 1.872 0 .672-.03 1.278-.09 1.818a8.3 8.3 0 0 1-.342 1.692c-.168.588-.402 1.08-.702 1.476-.3.384-.708.702-1.224.954s-1.128.378-1.836.378c-.744 0-1.392-.126-1.944-.378-.54-.264-.96-.588-1.26-.972-.3-.384-.54-.87-.72-1.458a9.487 9.487 0 0 1-.324-1.692 21.171 21.171 0 0 1-.072-1.854c0-.6.012-1.122.036-1.566.036-.444.096-.942.18-1.494.096-.564.24-1.038.432-1.422a5.14 5.14 0 0 1 .738-1.116c.3-.348.69-.612 1.17-.792.492-.18 1.056-.27 1.692-.27Zm.99 1.584a2.185 2.185 0 0 0-.99-.216c-.372 0-.702.072-.99.216a2.388 2.388 0 0 0-.702.468c-.18.18-.336.45-.468.81a8.14 8.14 0 0 0-.288.882c-.048.24-.09.588-.126 1.044-.036.444-.054.762-.054.954v.918c0 .42.006.768.018 1.044.012.276.042.636.09 1.08.048.444.132.816.252 1.116.12.288.27.582.45.882.18.288.426.51.738.666.324.144.696.216 1.116.216.36 0 .678-.066.954-.198.288-.132.522-.288.702-.468.18-.18.33-.432.45-.756a7.23 7.23 0 0 0 .288-.864c.06-.252.102-.582.126-.99.036-.42.054-.726.054-.918.012-.204.018-.498.018-.882v-.9c0-.18-.018-.492-.054-.936a6.733 6.733 0 0 0-.144-1.026 5.77 5.77 0 0 0-.27-.882c-.132-.348-.288-.612-.468-.792a2.388 2.388 0 0 0-.702-.468Zm10.47-1.566v12.744h-1.674v-9.234h-3.204v-1.152c1.032 0 1.848-.168 2.448-.504.612-.336 1.02-.954 1.224-1.854h1.206Zm12.324 11.358v1.386h-8.316c.036-.708.144-1.326.324-1.854.18-.528.456-1.002.828-1.422a8.189 8.189 0 0 1 1.116-1.062c.36-.276.87-.618 1.53-1.026 1.032-.648 1.71-1.134 2.034-1.458.672-.66 1.008-1.392 1.008-2.196 0-.708-.228-1.284-.684-1.728-.456-.456-1.05-.684-1.782-.684-.876 0-1.506.306-1.89.918-.372.6-.57 1.362-.594 2.286h-1.548v-.342c0-1.26.372-2.274 1.116-3.042.756-.768 1.752-1.152 2.988-1.152 1.212 0 2.178.336 2.898 1.008.72.672 1.08 1.572 1.08 2.7 0 .48-.084.936-.252 1.368-.156.42-.336.774-.54 1.062-.192.288-.492.594-.9.918-.396.324-.726.576-.99.756a74.6 74.6 0 0 1-1.134.702c-.984.588-1.638 1.044-1.962 1.368-.456.456-.75.954-.882 1.494h6.552Zm321.994 0v1.386h-8.316c.036-.708.144-1.326.324-1.854.18-.528.456-1.002.828-1.422a8.189 8.189 0 0 1 1.116-1.062c.36-.276.87-.618 1.53-1.026 1.032-.648 1.71-1.134 2.034-1.458.672-.66 1.008-1.392 1.008-2.196 0-.708-.228-1.284-.684-1.728-.456-.456-1.05-.684-1.782-.684-.876 0-1.506.306-1.89.918-.372.6-.57 1.362-.594 2.286h-1.548v-.342c0-1.26.372-2.274 1.116-3.042.756-.768 1.752-1.152 2.988-1.152 1.212 0 2.178.336 2.898 1.008.72.672 1.08 1.572 1.08 2.7 0 .48-.084.936-.252 1.368-.156.42-.336.774-.54 1.062-.192.288-.492.594-.9.918-.396.324-.726.576-.99.756a74.6 74.6 0 0 1-1.134.702c-.984.588-1.638 1.044-1.962 1.368-.456.456-.75.954-.882 1.494h6.552Zm6.222-11.376c.768 0 1.422.144 1.962.432.552.276.972.618 1.26 1.026.288.408.516.942.684 1.602a9.74 9.74 0 0 1 .306 1.764c.036.516.054 1.14.054 1.872 0 .672-.03 1.278-.09 1.818a8.3 8.3 0 0 1-.342 1.692c-.168.588-.402 1.08-.702 1.476-.3.384-.708.702-1.224.954s-1.128.378-1.836.378c-.744 0-1.392-.126-1.944-.378-.54-.264-.96-.588-1.26-.972-.3-.384-.54-.87-.72-1.458a9.487 9.487 0 0 1-.324-1.692 21.171 21.171 0 0 1-.072-1.854c0-.6.012-1.122.036-1.566.036-.444.096-.942.18-1.494.096-.564.24-1.038.432-1.422a5.14 5.14 0 0 1 .738-1.116c.3-.348.69-.612 1.17-.792.492-.18 1.056-.27 1.692-.27Zm.99 1.584a2.185 2.185 0 0 0-.99-.216c-.372 0-.702.072-.99.216a2.388 2.388 0 0 0-.702.468c-.18.18-.336.45-.468.81a8.14 8.14 0 0 0-.288.882c-.048.24-.09.588-.126 1.044-.036.444-.054.762-.054.954v.918c0 .42.006.768.018 1.044.012.276.042.636.09 1.08.048.444.132.816.252 1.116.12.288.27.582.45.882.18.288.426.51.738.666.324.144.696.216 1.116.216.36 0 .678-.066.954-.198.288-.132.522-.288.702-.468.18-.18.33-.432.45-.756a7.23 7.23 0 0 0 .288-.864c.06-.252.102-.582.126-.99.036-.42.054-.726.054-.918.012-.204.018-.498.018-.882v-.9c0-.18-.018-.492-.054-.936a6.733 6.733 0 0 0-.144-1.026 5.77 5.77 0 0 0-.27-.882c-.132-.348-.288-.612-.468-.792a2.388 2.388 0 0 0-.702-.468Zm10.47-1.566v12.744h-1.674v-9.234h-3.204v-1.152c1.032 0 1.848-.168 2.448-.504.612-.336 1.02-.954 1.224-1.854h1.206Zm12.63.216v1.314c-2.784 3.18-4.41 6.918-4.878 11.214h-1.692c.144-1.968.66-3.918 1.548-5.85a20.782 20.782 0 0 1 3.456-5.22h-6.678v-1.458h8.244Zm145.688 11.142v1.386h-8.316c.036-.708.144-1.326.324-1.854.18-.528.456-1.002.828-1.422a8.189 8.189 0 0 1 1.116-1.062c.36-.276.87-.618 1.53-1.026 1.032-.648 1.71-1.134 2.034-1.458.672-.66 1.008-1.392 1.008-2.196 0-.708-.228-1.284-.684-1.728-.456-.456-1.05-.684-1.782-.684-.876 0-1.506.306-1.89.918-.372.6-.57 1.362-.594 2.286h-1.548v-.342c0-1.26.372-2.274 1.116-3.042.756-.768 1.752-1.152 2.988-1.152 1.212 0 2.178.336 2.898 1.008.72.672 1.08 1.572 1.08 2.7 0 .48-.084.936-.252 1.368-.156.42-.336.774-.54 1.062-.192.288-.492.594-.9.918-.396.324-.726.576-.99.756a74.6 74.6 0 0 1-1.134.702c-.984.588-1.638 1.044-1.962 1.368-.456.456-.75.954-.882 1.494h6.552Zm6.222-11.376c.768 0 1.422.144 1.962.432.552.276.972.618 1.26 1.026.288.408.516.942.684 1.602a9.74 9.74 0 0 1 .306 1.764c.036.516.054 1.14.054 1.872 0 .672-.03 1.278-.09 1.818a8.3 8.3 0 0 1-.342 1.692c-.168.588-.402 1.08-.702 1.476-.3.384-.708.702-1.224.954s-1.128.378-1.836.378c-.744 0-1.392-.126-1.944-.378-.54-.264-.96-.588-1.26-.972-.3-.384-.54-.87-.72-1.458a9.487 9.487 0 0 1-.324-1.692 21.171 21.171 0 0 1-.072-1.854c0-.6.012-1.122.036-1.566.036-.444.096-.942.18-1.494.096-.564.24-1.038.432-1.422a5.14 5.14 0 0 1 .738-1.116c.3-.348.69-.612 1.17-.792.492-.18 1.056-.27 1.692-.27Zm.99 1.584a2.185 2.185 0 0 0-.99-.216c-.372 0-.702.072-.99.216a2.388 2.388 0 0 0-.702.468c-.18.18-.336.45-.468.81a8.14 8.14 0 0 0-.288.882c-.048.24-.09.588-.126 1.044-.036.444-.054.762-.054.954v.918c0 .42.006.768.018 1.044.012.276.042.636.09 1.08.048.444.132.816.252 1.116.12.288.27.582.45.882.18.288.426.51.738.666.324.144.696.216 1.116.216.36 0 .678-.066.954-.198.288-.132.522-.288.702-.468.18-.18.33-.432.45-.756a7.23 7.23 0 0 0 .288-.864c.06-.252.102-.582.126-.99.036-.42.054-.726.054-.918.012-.204.018-.498.018-.882v-.9c0-.18-.018-.492-.054-.936a6.733 6.733 0 0 0-.144-1.026 5.77 5.77 0 0 0-.27-.882c-.132-.348-.288-.612-.468-.792a2.388 2.388 0 0 0-.702-.468Zm10.47-1.566v12.744h-1.674v-9.234h-3.204v-1.152c1.032 0 1.848-.168 2.448-.504.612-.336 1.02-.954 1.224-1.854h1.206Zm4.458 9.666h1.512c.084.624.33 1.116.738 1.476.42.348.954.522 1.602.522 1.668 0 2.616-1.386 2.844-4.158a8.99 8.99 0 0 0 .036-.846c-.72 1.164-1.758 1.746-3.114 1.746-1.164 0-2.106-.378-2.826-1.134-.72-.768-1.08-1.77-1.08-3.006 0-1.272.39-2.304 1.17-3.096.78-.792 1.794-1.188 3.042-1.188 2.928 0 4.392 2.076 4.392 6.228 0 .636-.042 1.248-.126 1.836a9.66 9.66 0 0 1-.414 1.8 6.05 6.05 0 0 1-.792 1.602 3.643 3.643 0 0 1-1.314 1.116c-.54.288-1.164.432-1.872.432-1.08 0-1.968-.294-2.664-.882-.684-.588-1.062-1.404-1.134-2.448Zm3.852-8.316c-.756 0-1.368.264-1.836.792-.456.516-.684 1.206-.684 2.07 0 .816.216 1.494.648 2.034.444.528 1.068.792 1.872.792.78 0 1.41-.252 1.89-.756.48-.516.72-1.194.72-2.034 0-.876-.24-1.578-.72-2.106-.48-.528-1.11-.792-1.89-.792Zm150.008 10.008v1.386h-8.316c.036-.708.144-1.326.324-1.854.18-.528.456-1.002.828-1.422a8.189 8.189 0 0 1 1.116-1.062c.36-.276.87-.618 1.53-1.026 1.032-.648 1.71-1.134 2.034-1.458.672-.66 1.008-1.392 1.008-2.196 0-.708-.228-1.284-.684-1.728-.456-.456-1.05-.684-1.782-.684-.876 0-1.506.306-1.89.918-.372.6-.57 1.362-.594 2.286h-1.548v-.342c0-1.26.372-2.274 1.116-3.042.756-.768 1.752-1.152 2.988-1.152 1.212 0 2.178.336 2.898 1.008.72.672 1.08 1.572 1.08 2.7 0 .48-.084.936-.252 1.368-.156.42-.336.774-.54 1.062-.192.288-.492.594-.9.918-.396.324-.726.576-.99.756a74.6 74.6 0 0 1-1.134.702c-.984.588-1.638 1.044-1.962 1.368-.456.456-.75.954-.882 1.494h6.552Zm6.222-11.376c.768 0 1.422.144 1.962.432.552.276.972.618 1.26 1.026.288.408.516.942.684 1.602a9.74 9.74 0 0 1 .306 1.764c.036.516.054 1.14.054 1.872 0 .672-.03 1.278-.09 1.818a8.3 8.3 0 0 1-.342 1.692c-.168.588-.402 1.08-.702 1.476-.3.384-.708.702-1.224.954s-1.128.378-1.836.378c-.744 0-1.392-.126-1.944-.378-.54-.264-.96-.588-1.26-.972-.3-.384-.54-.87-.72-1.458a9.487 9.487 0 0 1-.324-1.692 21.171 21.171 0 0 1-.072-1.854c0-.6.012-1.122.036-1.566.036-.444.096-.942.18-1.494.096-.564.24-1.038.432-1.422a5.14 5.14 0 0 1 .738-1.116c.3-.348.69-.612 1.17-.792.492-.18 1.056-.27 1.692-.27Zm.99 1.584a2.185 2.185 0 0 0-.99-.216c-.372 0-.702.072-.99.216a2.388 2.388 0 0 0-.702.468c-.18.18-.336.45-.468.81a8.14 8.14 0 0 0-.288.882c-.048.24-.09.588-.126 1.044-.036.444-.054.762-.054.954v.918c0 .42.006.768.018 1.044.012.276.042.636.09 1.08.048.444.132.816.252 1.116.12.288.27.582.45.882.18.288.426.51.738.666.324.144.696.216 1.116.216.36 0 .678-.066.954-.198.288-.132.522-.288.702-.468.18-.18.33-.432.45-.756a7.23 7.23 0 0 0 .288-.864c.06-.252.102-.582.126-.99.036-.42.054-.726.054-.918.012-.204.018-.498.018-.882v-.9c0-.18-.018-.492-.054-.936a6.733 6.733 0 0 0-.144-1.026 5.77 5.77 0 0 0-.27-.882c-.132-.348-.288-.612-.468-.792a2.388 2.388 0 0 0-.702-.468Zm12.792 9.792v1.386h-8.316c.036-.708.144-1.326.324-1.854.18-.528.456-1.002.828-1.422a8.189 8.189 0 0 1 1.116-1.062c.36-.276.87-.618 1.53-1.026 1.032-.648 1.71-1.134 2.034-1.458.672-.66 1.008-1.392 1.008-2.196 0-.708-.228-1.284-.684-1.728-.456-.456-1.05-.684-1.782-.684-.876 0-1.506.306-1.89.918-.372.6-.57 1.362-.594 2.286h-1.548v-.342c0-1.26.372-2.274 1.116-3.042.756-.768 1.752-1.152 2.988-1.152 1.212 0 2.178.336 2.898 1.008.72.672 1.08 1.572 1.08 2.7 0 .48-.084.936-.252 1.368-.156.42-.336.774-.54 1.062-.192.288-.492.594-.9.918-.396.324-.726.576-.99.756a74.6 74.6 0 0 1-1.134.702c-.984.588-1.638 1.044-1.962 1.368-.456.456-.75.954-.882 1.494h6.552Zm7.68-11.358v12.744h-1.674v-9.234h-3.204v-1.152c1.032 0 1.848-.168 2.448-.504.612-.336 1.02-.954 1.224-1.854h1.206Z" fill="#333"/><path stroke="#A1A1A1" d="M7 545.622h1052m-.5.5v-546"/><path d="M11 458.998s209.362.462 341.587-14.348c101.922-11.415 162.253-16.105 256.072-51.414 92.929-34.973 138.487-67.653 214.264-124.748C888.709 218.92 974 127 974 127" stroke="#A3032B" stroke-width="2" stroke-linecap="round"/><path stroke="#000" stroke-opacity=".3" d="M87.5 524v44"/><path stroke="#A1A1A1" d="M439.5 524v44m-176-44v44m352-44v44m176-44v44m176-44v44M1081 400.622h-44m44 91h-44m44-455h-44m44 182h-44m44 91h-44m44-182h-44"/><path d="M1099.48 483.472v1.35h-5.17l-.75 3.798c.62-.672 1.48-1.008 2.57-1.008 1.2 0 2.17.39 2.92 1.17.74.768 1.11 1.77 1.11 3.006 0 1.296-.41 2.364-1.22 3.204-.82.84-1.88 1.26-3.19 1.26-1.21 0-2.19-.336-2.95-1.008-.74-.672-1.13-1.566-1.17-2.682h1.55c.06.708.33 1.284.81 1.728.48.444 1.07.666 1.78.666.79 0 1.45-.288 1.98-.864.53-.576.79-1.29.79-2.142 0-.888-.26-1.608-.77-2.16-.52-.564-1.19-.846-2.02-.846-1.05 0-1.87.414-2.45 1.242l-1.31-.09 1.19-6.624h6.3Zm6.51-.234c.77 0 1.42.144 1.96.432.55.276.97.618 1.26 1.026.29.408.52.942.68 1.602.17.648.27 1.236.31 1.764.04.516.05 1.14.05 1.872 0 .672-.03 1.278-.09 1.818-.04.54-.16 1.104-.34 1.692-.17.588-.4 1.08-.7 1.476-.3.384-.71.702-1.22.954-.52.252-1.13.378-1.84.378-.74 0-1.39-.126-1.94-.378-.54-.264-.96-.588-1.26-.972-.3-.384-.54-.87-.72-1.458-.17-.6-.28-1.164-.33-1.692-.05-.54-.07-1.158-.07-1.854 0-.6.01-1.122.04-1.566.03-.444.09-.942.18-1.494.09-.564.24-1.038.43-1.422.19-.396.44-.768.74-1.116.3-.348.69-.612 1.17-.792.49-.18 1.05-.27 1.69-.27Zm.99 1.584a2.197 2.197 0 0 0-.99-.216c-.37 0-.7.072-.99.216a2.35 2.35 0 0 0-.7.468c-.18.18-.34.45-.47.81-.13.348-.23.642-.29.882-.05.24-.09.588-.13 1.044-.03.444-.05.762-.05.954v.918c0 .42.01.768.02 1.044s.04.636.09 1.08c.05.444.13.816.25 1.116.12.288.27.582.45.882.18.288.43.51.74.666.32.144.69.216 1.11.216.36 0 .68-.066.96-.198.29-.132.52-.288.7-.468.18-.18.33-.432.45-.756.13-.336.23-.624.29-.864.06-.252.1-.582.12-.99.04-.42.06-.726.06-.918.01-.204.02-.498.02-.882v-.9c0-.18-.02-.492-.06-.936a6.12 6.12 0 0 0-.14-1.026 6.26 6.26 0 0 0-.27-.882c-.13-.348-.29-.612-.47-.792a2.35 2.35 0 0 0-.7-.468Zm17.11-1.98-7.18 13.77h-1.23l7.22-13.77h1.19Zm-8.44.36c.91 0 1.61.294 2.09.882.49.588.73 1.44.73 2.556 0 1.224-.24 2.16-.73 2.808-.5.648-1.22.972-2.16.972-1.94 0-2.9-1.212-2.9-3.636 0-1.14.26-2.022.77-2.646.52-.624 1.25-.936 2.2-.936Zm1.47 3.51c0-1.644-.51-2.466-1.54-2.466-1.04 0-1.55.876-1.55 2.628 0 1.68.51 2.52 1.55 2.52 1.03 0 1.54-.894 1.54-2.682Zm7.49 2.34c.91 0 1.61.294 2.09.882.49.588.74 1.44.74 2.556 0 1.224-.25 2.16-.74 2.808-.49.648-1.21.972-2.16.972-1.93 0-2.9-1.212-2.9-3.636 0-1.14.26-2.022.78-2.646.51-.624 1.24-.936 2.19-.936Zm1.48 3.51c0-1.644-.52-2.466-1.55-2.466s-1.55.876-1.55 2.628c0 1.68.52 2.52 1.55 2.52s1.55-.894 1.55-2.682Zm-28.65-100.306V405h-1.67v-9.234h-3.2v-1.152c1.03 0 1.84-.168 2.44-.504.62-.336 1.02-.954 1.23-1.854h1.2Zm8.55-.018c.77 0 1.42.144 1.96.432.55.276.97.618 1.26 1.026.29.408.52.942.68 1.602.17.648.27 1.236.31 1.764.04.516.05 1.14.05 1.872 0 .672-.03 1.278-.09 1.818-.04.54-.16 1.104-.34 1.692-.17.588-.4 1.08-.7 1.476-.3.384-.71.702-1.22.954-.52.252-1.13.378-1.84.378-.74 0-1.39-.126-1.94-.378-.54-.264-.96-.588-1.26-.972-.3-.384-.54-.87-.72-1.458-.17-.6-.28-1.164-.33-1.692-.05-.54-.07-1.158-.07-1.854 0-.6.01-1.122.04-1.566.03-.444.09-.942.18-1.494.09-.564.24-1.038.43-1.422.19-.396.44-.768.74-1.116.3-.348.69-.612 1.17-.792.49-.18 1.05-.27 1.69-.27Zm.99 1.584a2.197 2.197 0 0 0-.99-.216c-.37 0-.7.072-.99.216a2.35 2.35 0 0 0-.7.468c-.18.18-.34.45-.47.81-.13.348-.23.642-.29.882-.05.24-.09.588-.13 1.044-.03.444-.05.762-.05.954v.918c0 .42.01.768.02 1.044s.04.636.09 1.08c.05.444.13.816.25 1.116.12.288.27.582.45.882.18.288.43.51.74.666.32.144.69.216 1.11.216.36 0 .68-.066.96-.198.29-.132.52-.288.7-.468.18-.18.33-.432.45-.756.13-.336.23-.624.29-.864.06-.252.1-.582.12-.99.04-.42.06-.726.06-.918.01-.204.02-.498.02-.882v-.9c0-.18-.02-.492-.06-.936a6.12 6.12 0 0 0-.14-1.026 6.26 6.26 0 0 0-.27-.882c-.13-.348-.29-.612-.47-.792a2.35 2.35 0 0 0-.7-.468Zm9.01-1.584c.77 0 1.42.144 1.96.432.55.276.97.618 1.26 1.026.29.408.52.942.69 1.602.16.648.27 1.236.3 1.764.04.516.06 1.14.06 1.872 0 .672-.03 1.278-.09 1.818-.05.54-.17 1.104-.35 1.692-.16.588-.4 1.08-.7 1.476-.3.384-.71.702-1.22.954-.52.252-1.13.378-1.84.378-.74 0-1.39-.126-1.94-.378-.54-.264-.96-.588-1.26-.972-.3-.384-.54-.87-.72-1.458-.17-.6-.28-1.164-.33-1.692-.04-.54-.07-1.158-.07-1.854 0-.6.01-1.122.04-1.566.03-.444.09-.942.18-1.494.09-.564.24-1.038.43-1.422.19-.396.44-.768.74-1.116.3-.348.69-.612 1.17-.792.49-.18 1.05-.27 1.69-.27Zm.99 1.584a2.197 2.197 0 0 0-.99-.216c-.37 0-.7.072-.99.216a2.35 2.35 0 0 0-.7.468c-.18.18-.34.45-.47.81-.13.348-.23.642-.29.882-.05.24-.09.588-.12 1.044-.04.444-.06.762-.06.954v.918c0 .42.01.768.02 1.044s.04.636.09 1.08c.05.444.13.816.25 1.116.12.288.27.582.45.882.18.288.43.51.74.666.32.144.7.216 1.12.216.36 0 .67-.066.95-.198.29-.132.52-.288.7-.468.18-.18.33-.432.45-.756.13-.336.23-.624.29-.864.06-.252.1-.582.13-.99.03-.42.05-.726.05-.918.01-.204.02-.498.02-.882v-.9c0-.18-.02-.492-.06-.936a6.12 6.12 0 0 0-.14-1.026 6.26 6.26 0 0 0-.27-.882c-.13-.348-.29-.612-.47-.792a2.35 2.35 0 0 0-.7-.468Zm17.11-1.98-7.18 13.77h-1.22l7.21-13.77h1.19Zm-8.44.36c.91 0 1.61.294 2.09.882.49.588.74 1.44.74 2.556 0 1.224-.25 2.16-.74 2.808-.49.648-1.21.972-2.16.972-1.93 0-2.9-1.212-2.9-3.636 0-1.14.26-2.022.77-2.646.52-.624 1.25-.936 2.2-.936Zm1.48 3.51c0-1.644-.52-2.466-1.55-2.466s-1.55.876-1.55 2.628c0 1.68.52 2.52 1.55 2.52s1.55-.894 1.55-2.682Zm7.48 2.34c.92 0 1.61.294 2.09.882.49.588.74 1.44.74 2.556 0 1.224-.25 2.16-.74 2.808-.49.648-1.21.972-2.16.972-1.93 0-2.9-1.212-2.9-3.636 0-1.14.26-2.022.78-2.646.51-.624 1.25-.936 2.19-.936Zm1.48 3.51c0-1.644-.52-2.466-1.55-2.466s-1.55.876-1.55 2.628c0 1.68.52 2.52 1.55 2.52s1.55-.894 1.55-2.682Zm-38.65-100.306V314h-1.67v-9.234h-3.2v-1.152c1.03 0 1.84-.168 2.44-.504.62-.336 1.02-.954 1.23-1.854h1.2Zm12.04.216v1.35h-5.17l-.75 3.798c.62-.672 1.48-1.008 2.57-1.008 1.2 0 2.17.39 2.92 1.17.74.768 1.11 1.77 1.11 3.006 0 1.296-.4 2.364-1.22 3.204-.82.84-1.88 1.26-3.19 1.26-1.21 0-2.19-.336-2.95-1.008-.74-.672-1.13-1.566-1.17-2.682h1.55c.06.708.33 1.284.81 1.728.48.444 1.07.666 1.78.666.79 0 1.45-.288 1.98-.864.53-.576.79-1.29.79-2.142 0-.888-.25-1.608-.77-2.16-.52-.564-1.19-.846-2.02-.846-1.05 0-1.87.414-2.44 1.242l-1.32-.09 1.19-6.624h6.3Zm6.51-.234c.77 0 1.42.144 1.96.432.55.276.97.618 1.26 1.026.29.408.52.942.69 1.602.16.648.27 1.236.3 1.764.04.516.06 1.14.06 1.872 0 .672-.03 1.278-.09 1.818-.05.54-.17 1.104-.35 1.692-.16.588-.4 1.08-.7 1.476-.3.384-.71.702-1.22.954-.52.252-1.13.378-1.84.378-.74 0-1.39-.126-1.94-.378-.54-.264-.96-.588-1.26-.972-.3-.384-.54-.87-.72-1.458-.17-.6-.28-1.164-.33-1.692-.04-.54-.07-1.158-.07-1.854 0-.6.01-1.122.04-1.566.03-.444.09-.942.18-1.494.09-.564.24-1.038.43-1.422.19-.396.44-.768.74-1.116.3-.348.69-.612 1.17-.792.49-.18 1.05-.27 1.69-.27Zm.99 1.584a2.197 2.197 0 0 0-.99-.216c-.37 0-.7.072-.99.216a2.35 2.35 0 0 0-.7.468c-.18.18-.34.45-.47.81-.13.348-.23.642-.29.882-.05.24-.09.588-.12 1.044-.04.444-.06.762-.06.954v.918c0 .42.01.768.02 1.044s.04.636.09 1.08c.05.444.13.816.25 1.116.12.288.27.582.45.882.18.288.43.51.74.666.32.144.7.216 1.12.216.36 0 .67-.066.95-.198.29-.132.52-.288.7-.468.18-.18.33-.432.45-.756.13-.336.23-.624.29-.864.06-.252.1-.582.13-.99.03-.42.05-.726.05-.918.01-.204.02-.498.02-.882v-.9c0-.18-.02-.492-.06-.936a6.12 6.12 0 0 0-.14-1.026 6.26 6.26 0 0 0-.27-.882c-.13-.348-.29-.612-.47-.792a2.35 2.35 0 0 0-.7-.468Zm17.11-1.98-7.18 13.77h-1.22l7.21-13.77h1.19Zm-8.44.36c.91 0 1.61.294 2.09.882.49.588.74 1.44.74 2.556 0 1.224-.25 2.16-.74 2.808-.49.648-1.21.972-2.16.972-1.93 0-2.9-1.212-2.9-3.636 0-1.14.26-2.022.77-2.646.52-.624 1.25-.936 2.2-.936Zm1.48 3.51c0-1.644-.52-2.466-1.55-2.466s-1.55.876-1.55 2.628c0 1.68.52 2.52 1.55 2.52s1.55-.894 1.55-2.682Zm7.48 2.34c.92 0 1.61.294 2.09.882.49.588.74 1.44.74 2.556 0 1.224-.25 2.16-.74 2.808-.49.648-1.21.972-2.16.972-1.93 0-2.9-1.212-2.9-3.636 0-1.14.26-2.022.78-2.646.51-.624 1.25-.936 2.19-.936Zm1.48 3.51c0-1.644-.52-2.466-1.55-2.466s-1.55.876-1.55 2.628c0 1.68.52 2.52 1.55 2.52s1.55-.894 1.55-2.682Zm-36.32-88.948V223h-8.32c.04-.708.14-1.326.32-1.854s.46-1.002.83-1.422c.39-.432.76-.786 1.12-1.062.36-.276.87-.618 1.53-1.026 1.03-.648 1.71-1.134 2.03-1.458.67-.66 1.01-1.392 1.01-2.196 0-.708-.23-1.284-.68-1.728-.46-.456-1.05-.684-1.79-.684-.87 0-1.5.306-1.89.918-.37.6-.57 1.362-.59 2.286h-1.55v-.342c0-1.26.37-2.274 1.12-3.042.75-.768 1.75-1.152 2.99-1.152 1.21 0 2.17.336 2.89 1.008.72.672 1.08 1.572 1.08 2.7 0 .48-.08.936-.25 1.368-.15.42-.33.774-.54 1.062-.19.288-.49.594-.9.918-.39.324-.72.576-.99.756-.26.168-.64.402-1.13.702-.99.588-1.64 1.044-1.96 1.368-.46.456-.75.954-.89 1.494h6.56Zm6.22-11.376c.77 0 1.42.144 1.96.432.55.276.97.618 1.26 1.026.29.408.52.942.68 1.602.17.648.27 1.236.31 1.764.04.516.05 1.14.05 1.872 0 .672-.03 1.278-.09 1.818-.04.54-.16 1.104-.34 1.692-.17.588-.4 1.08-.7 1.476-.3.384-.71.702-1.22.954-.52.252-1.13.378-1.84.378-.74 0-1.39-.126-1.94-.378-.54-.264-.96-.588-1.26-.972-.3-.384-.54-.87-.72-1.458-.17-.6-.28-1.164-.33-1.692-.05-.54-.07-1.158-.07-1.854 0-.6.01-1.122.04-1.566.03-.444.09-.942.18-1.494.09-.564.24-1.038.43-1.422.19-.396.44-.768.74-1.116.3-.348.69-.612 1.17-.792.49-.18 1.05-.27 1.69-.27Zm.99 1.584a2.197 2.197 0 0 0-.99-.216c-.37 0-.7.072-.99.216a2.35 2.35 0 0 0-.7.468c-.18.18-.34.45-.47.81-.13.348-.23.642-.29.882-.05.24-.09.588-.13 1.044-.03.444-.05.762-.05.954v.918c0 .42.01.768.02 1.044s.04.636.09 1.08c.05.444.13.816.25 1.116.12.288.27.582.45.882.18.288.43.51.74.666.32.144.69.216 1.11.216.36 0 .68-.066.96-.198.29-.132.52-.288.7-.468.18-.18.33-.432.45-.756.13-.336.23-.624.29-.864.06-.252.1-.582.12-.99.04-.42.06-.726.06-.918.01-.204.02-.498.02-.882v-.9c0-.18-.02-.492-.06-.936a6.12 6.12 0 0 0-.14-1.026 6.26 6.26 0 0 0-.27-.882c-.13-.348-.29-.612-.47-.792a2.35 2.35 0 0 0-.7-.468Zm9.01-1.584c.77 0 1.42.144 1.96.432.55.276.97.618 1.26 1.026.29.408.52.942.69 1.602.16.648.27 1.236.3 1.764.04.516.06 1.14.06 1.872 0 .672-.03 1.278-.09 1.818-.05.54-.17 1.104-.35 1.692-.16.588-.4 1.08-.7 1.476-.3.384-.71.702-1.22.954-.52.252-1.13.378-1.84.378-.74 0-1.39-.126-1.94-.378-.54-.264-.96-.588-1.26-.972-.3-.384-.54-.87-.72-1.458-.17-.6-.28-1.164-.33-1.692-.04-.54-.07-1.158-.07-1.854 0-.6.01-1.122.04-1.566.03-.444.09-.942.18-1.494.09-.564.24-1.038.43-1.422.19-.396.44-.768.74-1.116.3-.348.69-.612 1.17-.792.49-.18 1.05-.27 1.69-.27Zm.99 1.584a2.197 2.197 0 0 0-.99-.216c-.37 0-.7.072-.99.216a2.35 2.35 0 0 0-.7.468c-.18.18-.34.45-.47.81-.13.348-.23.642-.29.882-.05.24-.09.588-.12 1.044-.04.444-.06.762-.06.954v.918c0 .42.01.768.02 1.044s.04.636.09 1.08c.05.444.13.816.25 1.116.12.288.27.582.45.882.18.288.43.51.74.666.32.144.7.216 1.12.216.36 0 .67-.066.95-.198.29-.132.52-.288.7-.468.18-.18.33-.432.45-.756.13-.336.23-.624.29-.864.06-.252.1-.582.13-.99.03-.42.05-.726.05-.918.01-.204.02-.498.02-.882v-.9c0-.18-.02-.492-.06-.936a6.12 6.12 0 0 0-.14-1.026 6.26 6.26 0 0 0-.27-.882c-.13-.348-.29-.612-.47-.792a2.35 2.35 0 0 0-.7-.468Zm17.11-1.98-7.18 13.77h-1.22l7.21-13.77h1.19Zm-8.44.36c.91 0 1.61.294 2.09.882.49.588.74 1.44.74 2.556 0 1.224-.25 2.16-.74 2.808-.49.648-1.21.972-2.16.972-1.93 0-2.9-1.212-2.9-3.636 0-1.14.26-2.022.77-2.646.52-.624 1.25-.936 2.2-.936Zm1.48 3.51c0-1.644-.52-2.466-1.55-2.466s-1.55.876-1.55 2.628c0 1.68.52 2.52 1.55 2.52s1.55-.894 1.55-2.682Zm7.48 2.34c.92 0 1.61.294 2.09.882.49.588.74 1.44.74 2.556 0 1.224-.25 2.16-.74 2.808-.49.648-1.21.972-2.16.972-1.93 0-2.9-1.212-2.9-3.636 0-1.14.26-2.022.78-2.646.51-.624 1.25-.936 2.19-.936Zm1.48 3.51c0-1.644-.52-2.466-1.55-2.466s-1.55.876-1.55 2.628c0 1.68.52 2.52 1.55 2.52s1.55-.894 1.55-2.682Zm-36.32-88.948V132h-8.32c.04-.708.14-1.326.32-1.854s.46-1.002.83-1.422c.39-.432.76-.786 1.12-1.062.36-.276.87-.618 1.53-1.026 1.03-.648 1.71-1.134 2.03-1.458.67-.66 1.01-1.392 1.01-2.196 0-.708-.23-1.284-.68-1.728-.46-.456-1.05-.684-1.79-.684-.87 0-1.5.306-1.89.918-.37.6-.57 1.362-.59 2.286h-1.55v-.342c0-1.26.37-2.274 1.12-3.042.75-.768 1.75-1.152 2.99-1.152 1.21 0 2.17.336 2.89 1.008.72.672 1.08 1.572 1.08 2.7 0 .48-.08.936-.25 1.368-.15.42-.33.774-.54 1.062-.19.288-.49.594-.9.918-.39.324-.72.576-.99.756-.26.168-.64.402-1.13.702-.99.588-1.64 1.044-1.96 1.368-.46.456-.75.954-.89 1.494h6.56Zm9.71-11.142v1.35h-5.17l-.75 3.798c.62-.672 1.48-1.008 2.57-1.008 1.2 0 2.17.39 2.92 1.17.74.768 1.11 1.77 1.11 3.006 0 1.296-.4 2.364-1.22 3.204-.82.84-1.88 1.26-3.19 1.26-1.21 0-2.19-.336-2.95-1.008-.74-.672-1.13-1.566-1.17-2.682h1.55c.06.708.33 1.284.81 1.728.48.444 1.07.666 1.78.666.79 0 1.45-.288 1.98-.864.53-.576.79-1.29.79-2.142 0-.888-.25-1.608-.77-2.16-.52-.564-1.19-.846-2.02-.846-1.05 0-1.87.414-2.44 1.242l-1.32-.09 1.19-6.624h6.3Zm6.51-.234c.77 0 1.42.144 1.96.432.55.276.97.618 1.26 1.026.29.408.52.942.69 1.602.16.648.27 1.236.3 1.764.04.516.06 1.14.06 1.872 0 .672-.03 1.278-.09 1.818-.05.54-.17 1.104-.35 1.692-.16.588-.4 1.08-.7 1.476-.3.384-.71.702-1.22.954-.52.252-1.13.378-1.84.378-.74 0-1.39-.126-1.94-.378-.54-.264-.96-.588-1.26-.972-.3-.384-.54-.87-.72-1.458-.17-.6-.28-1.164-.33-1.692-.04-.54-.07-1.158-.07-1.854 0-.6.01-1.122.04-1.566.03-.444.09-.942.18-1.494.09-.564.24-1.038.43-1.422.19-.396.44-.768.74-1.116.3-.348.69-.612 1.17-.792.49-.18 1.05-.27 1.69-.27Zm.99 1.584a2.197 2.197 0 0 0-.99-.216c-.37 0-.7.072-.99.216a2.35 2.35 0 0 0-.7.468c-.18.18-.34.45-.47.81-.13.348-.23.642-.29.882-.05.24-.09.588-.12 1.044-.04.444-.06.762-.06.954v.918c0 .42.01.768.02 1.044s.04.636.09 1.08c.05.444.13.816.25 1.116.12.288.27.582.45.882.18.288.43.51.74.666.32.144.7.216 1.12.216.36 0 .67-.066.95-.198.29-.132.52-.288.7-.468.18-.18.33-.432.45-.756.13-.336.23-.624.29-.864.06-.252.1-.582.13-.99.03-.42.05-.726.05-.918.01-.204.02-.498.02-.882v-.9c0-.18-.02-.492-.06-.936a6.12 6.12 0 0 0-.14-1.026 6.26 6.26 0 0 0-.27-.882c-.13-.348-.29-.612-.47-.792a2.35 2.35 0 0 0-.7-.468Zm17.11-1.98-7.18 13.77h-1.22l7.21-13.77h1.19Zm-8.44.36c.91 0 1.61.294 2.09.882.49.588.74 1.44.74 2.556 0 1.224-.25 2.16-.74 2.808-.49.648-1.21.972-2.16.972-1.93 0-2.9-1.212-2.9-3.636 0-1.14.26-2.022.77-2.646.52-.624 1.25-.936 2.2-.936Zm1.48 3.51c0-1.644-.52-2.466-1.55-2.466s-1.55.876-1.55 2.628c0 1.68.52 2.52 1.55 2.52s1.55-.894 1.55-2.682Zm7.48 2.34c.92 0 1.61.294 2.09.882.49.588.74 1.44.74 2.556 0 1.224-.25 2.16-.74 2.808-.49.648-1.21.972-2.16.972-1.93 0-2.9-1.212-2.9-3.636 0-1.14.26-2.022.78-2.646.51-.624 1.25-.936 2.19-.936Zm1.48 3.51c0-1.644-.52-2.466-1.55-2.466s-1.55.876-1.55 2.628c0 1.68.52 2.52 1.55 2.52s1.55-.894 1.55-2.682Zm-43.26-96.184c.03-1.32.4-2.34 1.1-3.06.7-.72 1.69-1.08 2.95-1.08 1.13 0 2.03.306 2.72.918.68.612 1.02 1.416 1.02 2.412 0 .6-.15 1.14-.47 1.62-.3.468-.72.816-1.27 1.044.72.168 1.29.528 1.71 1.08.42.552.63 1.218.63 1.998.01 1.176-.4 2.13-1.23 2.862-.81.72-1.88 1.08-3.18 1.08-1.3 0-2.34-.354-3.12-1.062-.77-.72-1.15-1.686-1.15-2.898v-.234h1.51c.04.912.3 1.614.78 2.106.48.492 1.14.738 1.99.738.82 0 1.48-.228 1.98-.684.52-.468.78-1.068.78-1.8 0-.744-.26-1.338-.78-1.782-.5-.444-1.18-.666-2.05-.666-.21 0-.49.024-.83.072v-1.296c.17.012.35.018.53.018.79 0 1.41-.186 1.87-.558.47-.384.7-.9.7-1.548 0-.624-.2-1.128-.61-1.512-.4-.384-.93-.576-1.6-.576-.77 0-1.37.246-1.8.738-.44.48-.66 1.17-.69 2.07h-1.49Zm14.16-4.14c.77 0 1.42.144 1.96.432.55.276.97.618 1.26 1.026.29.408.52.942.68 1.602.17.648.27 1.236.31 1.764.04.516.05 1.14.05 1.872 0 .672-.03 1.278-.09 1.818-.04.54-.16 1.104-.34 1.692-.17.588-.4 1.08-.7 1.476-.3.384-.71.702-1.22.954-.52.252-1.13.378-1.84.378-.74 0-1.39-.126-1.94-.378-.54-.264-.96-.588-1.26-.972-.3-.384-.54-.87-.72-1.458-.17-.6-.28-1.164-.33-1.692-.05-.54-.07-1.158-.07-1.854 0-.6.01-1.122.04-1.566.03-.444.09-.942.18-1.494.09-.564.24-1.038.43-1.422.19-.396.44-.768.74-1.116.3-.348.69-.612 1.17-.792.49-.18 1.05-.27 1.69-.27Zm.99 1.584a2.197 2.197 0 0 0-.99-.216c-.37 0-.7.072-.99.216a2.35 2.35 0 0 0-.7.468c-.18.18-.34.45-.47.81-.13.348-.23.642-.29.882-.05.24-.09.588-.13 1.044-.03.444-.05.762-.05.954v.918c0 .42.01.768.02 1.044s.04.636.09 1.08c.05.444.13.816.25 1.116.12.288.27.582.45.882.18.288.43.51.74.666.32.144.69.216 1.11.216.36 0 .68-.066.96-.198.29-.132.52-.288.7-.468.18-.18.33-.432.45-.756.13-.336.23-.624.29-.864.06-.252.1-.582.12-.99.04-.42.06-.726.06-.918.01-.204.02-.498.02-.882v-.9c0-.18-.02-.492-.06-.936a6.12 6.12 0 0 0-.14-1.026 6.26 6.26 0 0 0-.27-.882c-.13-.348-.29-.612-.47-.792a2.35 2.35 0 0 0-.7-.468Zm9.01-1.584c.77 0 1.42.144 1.96.432.55.276.97.618 1.26 1.026.29.408.52.942.69 1.602.16.648.27 1.236.3 1.764.04.516.06 1.14.06 1.872 0 .672-.03 1.278-.09 1.818-.05.54-.17 1.104-.35 1.692-.16.588-.4 1.08-.7 1.476-.3.384-.71.702-1.22.954-.52.252-1.13.378-1.84.378-.74 0-1.39-.126-1.94-.378-.54-.264-.96-.588-1.26-.972-.3-.384-.54-.87-.72-1.458-.17-.6-.28-1.164-.33-1.692-.04-.54-.07-1.158-.07-1.854 0-.6.01-1.122.04-1.566.03-.444.09-.942.18-1.494.09-.564.24-1.038.43-1.422.19-.396.44-.768.74-1.116.3-.348.69-.612 1.17-.792.49-.18 1.05-.27 1.69-.27Zm.99 1.584a2.197 2.197 0 0 0-.99-.216c-.37 0-.7.072-.99.216a2.35 2.35 0 0 0-.7.468c-.18.18-.34.45-.47.81-.13.348-.23.642-.29.882-.05.24-.09.588-.12 1.044-.04.444-.06.762-.06.954v.918c0 .42.01.768.02 1.044s.04.636.09 1.08c.05.444.13.816.25 1.116.12.288.27.582.45.882.18.288.43.51.74.666.32.144.7.216 1.12.216.36 0 .67-.066.95-.198.29-.132.52-.288.7-.468.18-.18.33-.432.45-.756.13-.336.23-.624.29-.864.06-.252.1-.582.13-.99.03-.42.05-.726.05-.918.01-.204.02-.498.02-.882v-.9c0-.18-.02-.492-.06-.936a6.12 6.12 0 0 0-.14-1.026 6.26 6.26 0 0 0-.27-.882c-.13-.348-.29-.612-.47-.792a2.35 2.35 0 0 0-.7-.468Zm17.11-1.98-7.18 13.77h-1.22l7.21-13.77h1.19Zm-8.44.36c.91 0 1.61.294 2.09.882.49.588.74 1.44.74 2.556 0 1.224-.25 2.16-.74 2.808-.49.648-1.21.972-2.16.972-1.93 0-2.9-1.212-2.9-3.636 0-1.14.26-2.022.77-2.646.52-.624 1.25-.936 2.2-.936Zm1.48 3.51c0-1.644-.52-2.466-1.55-2.466s-1.55.876-1.55 2.628c0 1.68.52 2.52 1.55 2.52s1.55-.894 1.55-2.682Zm7.48 2.34c.92 0 1.61.294 2.09.882.49.588.74 1.44.74 2.556 0 1.224-.25 2.16-.74 2.808-.49.648-1.21.972-2.16.972-1.93 0-2.9-1.212-2.9-3.636 0-1.14.26-2.022.78-2.646.51-.624 1.25-.936 2.19-.936Zm1.48 3.51c0-1.644-.52-2.466-1.55-2.466s-1.55.876-1.55 2.628c0 1.68.52 2.52 1.55 2.52s1.55-.894 1.55-2.682Z" fill="#333"/><circle cx="263" cy="452" r="12.5" fill="#fff" stroke="#A3032B" stroke-width="5"/><circle cx="439" cy="434" r="12.5" fill="#fff" stroke="#A3032B" stroke-width="5"/><circle cx="615" cy="392" r="12.5" fill="#fff" stroke="#A3032B" stroke-width="5"/><circle cx="791" cy="293" r="12.5" fill="#fff" stroke="#A3032B" stroke-width="5"/><circle cx="967" cy="137" r="12.5" fill="#fff" stroke="#A3032B" stroke-width="5"/></svg>