<svg width="64" height="51" fill="none" xmlns="http://www.w3.org/2000/svg"><path opacity=".3" d="M43.114 26.74c-2.486-1.08-4.426-2.697-5.818-4.854-1.392-2.157-2.088-4.706-2.088-7.647 0-4.216 1.342-7.647 4.027-10.294C41.921 1.396 45.352.122 49.53.122c4.177 0 7.658 1.323 10.443 3.97C62.657 6.74 64 10.122 64 14.24c0 1.961-.249 3.922-.746 5.883-.497 1.96-1.591 4.901-3.282 8.823l-8.653 21.177H36.55l6.564-23.383Zm-35.207 0c-2.487-1.08-4.426-2.697-5.818-4.854C.696 19.73 0 17.18 0 14.24c0-4.216 1.343-7.647 4.028-10.294C6.713 1.396 10.145.122 14.322.122c4.177 0 7.658 1.323 10.443 3.97 2.685 2.647 4.027 6.03 4.027 10.147 0 1.961-.248 3.922-.745 5.883-.498 1.96-1.592 4.901-3.282 8.823l-8.653 21.177H1.342l6.565-23.383Z" fill="#191919"/></svg>