<svg width="32" height="33" viewBox="0 0 32 33" fill="none" xmlns="http://www.w3.org/2000/svg">
<path fill-rule="evenodd" clip-rule="evenodd" d="M16 32.1216C7.16344 32.1216 0 24.9581 0 16.1216C0 7.28503 7.16344 0.121582 16 0.121582C24.8366 0.121582 32 7.28503 32 16.1216C32 24.9581 24.8366 32.1216 16 32.1216ZM16.6919 12.129C15.2589 12.725 12.3949 13.9586 8.09992 15.8299C7.40248 16.1072 7.03714 16.3785 7.00388 16.6439C6.94767 17.0922 7.50915 17.2688 8.27374 17.5092C8.37774 17.5419 8.4855 17.5758 8.59598 17.6117C9.34822 17.8562 10.3601 18.1423 10.8862 18.1536C11.3633 18.164 11.8959 17.9672 12.4839 17.5635C16.4968 14.8546 18.5683 13.4855 18.6983 13.456C18.7901 13.4351 18.9172 13.409 19.0034 13.4855C19.0895 13.5621 19.0811 13.7071 19.0719 13.746C19.0163 13.9831 16.8123 16.0322 15.6717 17.0926C15.3161 17.4231 15.0639 17.6576 15.0124 17.7112C14.8969 17.8311 14.7791 17.9446 14.666 18.0537C13.9672 18.7274 13.4431 19.2326 14.695 20.0576C15.2967 20.4541 15.7781 20.7819 16.2584 21.109C16.7829 21.4662 17.306 21.8224 17.9829 22.2662C18.1554 22.3792 18.3201 22.4966 18.4805 22.611C19.0909 23.0462 19.6393 23.4371 20.3168 23.3748C20.7105 23.3385 21.1172 22.9684 21.3237 21.8643C21.8118 19.2551 22.7712 13.6017 22.9929 11.272C23.0123 11.0679 22.9879 10.8067 22.9683 10.6921C22.9486 10.5774 22.9076 10.414 22.7586 10.2931C22.582 10.1498 22.3095 10.1196 22.1877 10.1217C21.6335 10.1315 20.7834 10.4272 16.6919 12.129Z" fill="white"/>
</svg>
