<svg width="32" height="33" viewBox="0 0 32 33" fill="none" xmlns="http://www.w3.org/2000/svg">
<path d="M10.6987 12.9909C10.784 17.1509 12.864 19.6469 16.512 19.6469H16.7253V17.2682C18.064 17.4016 19.0773 18.3829 19.4827 19.6469H21.376C21.1818 18.9286 20.8376 18.2597 20.366 17.6842C19.8943 17.1087 19.3061 16.6398 18.64 16.3082C19.2369 15.9447 19.7524 15.4621 20.1543 14.8904C20.5563 14.3187 20.836 13.6702 20.976 12.9856H19.2587C18.8853 14.3082 17.776 15.5082 16.7253 15.6202V12.9909H15.0027V17.5989C13.936 17.3322 12.592 16.0416 12.5333 12.9909H10.6987Z" fill="white"/>
<path fill-rule="evenodd" clip-rule="evenodd" d="M16 0.121582C24.8366 0.121582 32 7.28503 32 16.1216C32 24.9581 24.8366 32.1216 16 32.1216C7.16344 32.1216 0 24.9581 0 16.1216C0 7.28503 7.16344 0.121582 16 0.121582ZM8 15.8016C8 12.1802 8 10.3722 9.12 9.24158C10.256 8.12158 12.064 8.12158 15.68 8.12158H16.32C19.9413 8.12158 21.7493 8.12158 22.88 9.24158C24 10.3776 24 12.1856 24 15.8016V16.4416C24 20.0629 24 21.8709 22.88 23.0016C21.744 24.1216 19.936 24.1216 16.32 24.1216H15.68C12.0587 24.1216 10.2507 24.1216 9.12 23.0016C8 21.8656 8 20.0576 8 16.4416V15.8016Z" fill="white"/>
</svg>
