<svg width="1140" height="617" viewBox="0 0 1140 617" fill="none" xmlns="http://www.w3.org/2000/svg">
<path d="M11 459.121C11 459.121 215.775 460.147 348 459.121C398.572 458.729 367.412 449.619 420 448.5C471.426 447.406 567.624 442.52 619 440C699.871 436.033 737.307 432.354 813 426C847.968 423.065 868.331 425.993 902.5 418C931.43 411.232 974 392 974 392" stroke="black" stroke-width="2" stroke-linecap="round"/>
<path d="M74.766 607.736V609.122H66.45C66.486 608.414 66.594 607.796 66.774 607.268C66.954 606.74 67.23 606.266 67.602 605.846C67.986 605.414 68.358 605.06 68.718 604.784C69.078 604.508 69.588 604.166 70.248 603.758C71.28 603.11 71.958 602.624 72.282 602.3C72.954 601.64 73.29 600.908 73.29 600.104C73.29 599.396 73.062 598.82 72.606 598.376C72.15 597.92 71.556 597.692 70.824 597.692C69.948 597.692 69.318 597.998 68.934 598.61C68.562 599.21 68.364 599.972 68.34 600.896H66.792V600.554C66.792 599.294 67.164 598.28 67.908 597.512C68.664 596.744 69.66 596.36 70.896 596.36C72.108 596.36 73.074 596.696 73.794 597.368C74.514 598.04 74.874 598.94 74.874 600.068C74.874 600.548 74.79 601.004 74.622 601.436C74.466 601.856 74.286 602.21 74.082 602.498C73.89 602.786 73.59 603.092 73.182 603.416C72.786 603.74 72.456 603.992 72.192 604.172C71.928 604.34 71.55 604.574 71.058 604.874C70.074 605.462 69.42 605.918 69.096 606.242C68.64 606.698 68.346 607.196 68.214 607.736H74.766ZM80.988 596.36C81.756 596.36 82.41 596.504 82.95 596.792C83.502 597.068 83.922 597.41 84.21 597.818C84.498 598.226 84.726 598.76 84.894 599.42C85.062 600.068 85.164 600.656 85.2 601.184C85.236 601.7 85.254 602.324 85.254 603.056C85.254 603.728 85.224 604.334 85.164 604.874C85.116 605.414 85.002 605.978 84.822 606.566C84.654 607.154 84.42 607.646 84.12 608.042C83.82 608.426 83.412 608.744 82.896 608.996C82.38 609.248 81.768 609.374 81.06 609.374C80.316 609.374 79.668 609.248 79.116 608.996C78.576 608.732 78.156 608.408 77.856 608.024C77.556 607.64 77.316 607.154 77.136 606.566C76.968 605.966 76.86 605.402 76.812 604.874C76.764 604.334 76.74 603.716 76.74 603.02C76.74 602.42 76.752 601.898 76.776 601.454C76.812 601.01 76.872 600.512 76.956 599.96C77.052 599.396 77.196 598.922 77.388 598.538C77.58 598.142 77.826 597.77 78.126 597.422C78.426 597.074 78.816 596.81 79.296 596.63C79.788 596.45 80.352 596.36 80.988 596.36ZM81.978 597.944C81.69 597.8 81.36 597.728 80.988 597.728C80.616 597.728 80.286 597.8 79.998 597.944C79.71 598.076 79.476 598.232 79.296 598.412C79.116 598.592 78.96 598.862 78.828 599.222C78.696 599.57 78.6 599.864 78.54 600.104C78.492 600.344 78.45 600.692 78.414 601.148C78.378 601.592 78.36 601.91 78.36 602.102C78.36 602.282 78.36 602.588 78.36 603.02C78.36 603.44 78.366 603.788 78.378 604.064C78.39 604.34 78.42 604.7 78.468 605.144C78.516 605.588 78.6 605.96 78.72 606.26C78.84 606.548 78.99 606.842 79.17 607.142C79.35 607.43 79.596 607.652 79.908 607.808C80.232 607.952 80.604 608.024 81.024 608.024C81.384 608.024 81.702 607.958 81.978 607.826C82.266 607.694 82.5 607.538 82.68 607.358C82.86 607.178 83.01 606.926 83.13 606.602C83.262 606.266 83.358 605.978 83.418 605.738C83.478 605.486 83.52 605.156 83.544 604.748C83.58 604.328 83.598 604.022 83.598 603.83C83.61 603.626 83.616 603.332 83.616 602.948C83.616 602.528 83.616 602.228 83.616 602.048C83.616 601.868 83.598 601.556 83.562 601.112C83.526 600.668 83.478 600.326 83.418 600.086C83.37 599.846 83.28 599.552 83.148 599.204C83.016 598.856 82.86 598.592 82.68 598.412C82.5 598.232 82.266 598.076 81.978 597.944ZM92.4479 596.378V609.122H90.7739V599.888H87.5699V598.736C88.6019 598.736 89.4179 598.568 90.0179 598.232C90.6299 597.896 91.0379 597.278 91.2419 596.378H92.4479ZM100.992 596.36C101.76 596.36 102.414 596.504 102.954 596.792C103.506 597.068 103.926 597.41 104.214 597.818C104.502 598.226 104.73 598.76 104.898 599.42C105.066 600.068 105.168 600.656 105.204 601.184C105.24 601.7 105.258 602.324 105.258 603.056C105.258 603.728 105.228 604.334 105.168 604.874C105.12 605.414 105.006 605.978 104.826 606.566C104.658 607.154 104.424 607.646 104.124 608.042C103.824 608.426 103.416 608.744 102.9 608.996C102.384 609.248 101.772 609.374 101.064 609.374C100.32 609.374 99.6719 609.248 99.1199 608.996C98.5799 608.732 98.1599 608.408 97.8599 608.024C97.5599 607.64 97.3199 607.154 97.1399 606.566C96.9719 605.966 96.8639 605.402 96.8159 604.874C96.7679 604.334 96.7439 603.716 96.7439 603.02C96.7439 602.42 96.7559 601.898 96.7799 601.454C96.8159 601.01 96.8759 600.512 96.9599 599.96C97.0559 599.396 97.1999 598.922 97.3919 598.538C97.5839 598.142 97.8299 597.77 98.1299 597.422C98.4299 597.074 98.8199 596.81 99.2999 596.63C99.7919 596.45 100.356 596.36 100.992 596.36ZM101.982 597.944C101.694 597.8 101.364 597.728 100.992 597.728C100.62 597.728 100.29 597.8 100.002 597.944C99.7139 598.076 99.4799 598.232 99.2999 598.412C99.1199 598.592 98.9639 598.862 98.8319 599.222C98.6999 599.57 98.6039 599.864 98.5439 600.104C98.4959 600.344 98.4539 600.692 98.4179 601.148C98.3819 601.592 98.3639 601.91 98.3639 602.102C98.3639 602.282 98.3639 602.588 98.3639 603.02C98.3639 603.44 98.3699 603.788 98.3819 604.064C98.3939 604.34 98.4239 604.7 98.4719 605.144C98.5199 605.588 98.6039 605.96 98.7239 606.26C98.8439 606.548 98.9939 606.842 99.1739 607.142C99.3539 607.43 99.5999 607.652 99.9119 607.808C100.236 607.952 100.608 608.024 101.028 608.024C101.388 608.024 101.706 607.958 101.982 607.826C102.27 607.694 102.504 607.538 102.684 607.358C102.864 607.178 103.014 606.926 103.134 606.602C103.266 606.266 103.362 605.978 103.422 605.738C103.482 605.486 103.524 605.156 103.548 604.748C103.584 604.328 103.602 604.022 103.602 603.83C103.614 603.626 103.62 603.332 103.62 602.948C103.62 602.528 103.62 602.228 103.62 602.048C103.62 601.868 103.602 601.556 103.566 601.112C103.53 600.668 103.482 600.326 103.422 600.086C103.374 599.846 103.284 599.552 103.152 599.204C103.02 598.856 102.864 598.592 102.684 598.412C102.504 598.232 102.27 598.076 101.982 597.944Z" fill="#333333"/>
<path d="M426.766 607.736V609.122H418.45C418.486 608.414 418.594 607.796 418.774 607.268C418.954 606.74 419.23 606.266 419.602 605.846C419.986 605.414 420.358 605.06 420.718 604.784C421.078 604.508 421.588 604.166 422.248 603.758C423.28 603.11 423.958 602.624 424.282 602.3C424.954 601.64 425.29 600.908 425.29 600.104C425.29 599.396 425.062 598.82 424.606 598.376C424.15 597.92 423.556 597.692 422.824 597.692C421.948 597.692 421.318 597.998 420.934 598.61C420.562 599.21 420.364 599.972 420.34 600.896H418.792V600.554C418.792 599.294 419.164 598.28 419.908 597.512C420.664 596.744 421.66 596.36 422.896 596.36C424.108 596.36 425.074 596.696 425.794 597.368C426.514 598.04 426.874 598.94 426.874 600.068C426.874 600.548 426.79 601.004 426.622 601.436C426.466 601.856 426.286 602.21 426.082 602.498C425.89 602.786 425.59 603.092 425.182 603.416C424.786 603.74 424.456 603.992 424.192 604.172C423.928 604.34 423.55 604.574 423.058 604.874C422.074 605.462 421.42 605.918 421.096 606.242C420.64 606.698 420.346 607.196 420.214 607.736H426.766ZM432.988 596.36C433.756 596.36 434.41 596.504 434.95 596.792C435.502 597.068 435.922 597.41 436.21 597.818C436.498 598.226 436.726 598.76 436.894 599.42C437.062 600.068 437.164 600.656 437.2 601.184C437.236 601.7 437.254 602.324 437.254 603.056C437.254 603.728 437.224 604.334 437.164 604.874C437.116 605.414 437.002 605.978 436.822 606.566C436.654 607.154 436.42 607.646 436.12 608.042C435.82 608.426 435.412 608.744 434.896 608.996C434.38 609.248 433.768 609.374 433.06 609.374C432.316 609.374 431.668 609.248 431.116 608.996C430.576 608.732 430.156 608.408 429.856 608.024C429.556 607.64 429.316 607.154 429.136 606.566C428.968 605.966 428.86 605.402 428.812 604.874C428.764 604.334 428.74 603.716 428.74 603.02C428.74 602.42 428.752 601.898 428.776 601.454C428.812 601.01 428.872 600.512 428.956 599.96C429.052 599.396 429.196 598.922 429.388 598.538C429.58 598.142 429.826 597.77 430.126 597.422C430.426 597.074 430.816 596.81 431.296 596.63C431.788 596.45 432.352 596.36 432.988 596.36ZM433.978 597.944C433.69 597.8 433.36 597.728 432.988 597.728C432.616 597.728 432.286 597.8 431.998 597.944C431.71 598.076 431.476 598.232 431.296 598.412C431.116 598.592 430.96 598.862 430.828 599.222C430.696 599.57 430.6 599.864 430.54 600.104C430.492 600.344 430.45 600.692 430.414 601.148C430.378 601.592 430.36 601.91 430.36 602.102C430.36 602.282 430.36 602.588 430.36 603.02C430.36 603.44 430.366 603.788 430.378 604.064C430.39 604.34 430.42 604.7 430.468 605.144C430.516 605.588 430.6 605.96 430.72 606.26C430.84 606.548 430.99 606.842 431.17 607.142C431.35 607.43 431.596 607.652 431.908 607.808C432.232 607.952 432.604 608.024 433.024 608.024C433.384 608.024 433.702 607.958 433.978 607.826C434.266 607.694 434.5 607.538 434.68 607.358C434.86 607.178 435.01 606.926 435.13 606.602C435.262 606.266 435.358 605.978 435.418 605.738C435.478 605.486 435.52 605.156 435.544 604.748C435.58 604.328 435.598 604.022 435.598 603.83C435.61 603.626 435.616 603.332 435.616 602.948C435.616 602.528 435.616 602.228 435.616 602.048C435.616 601.868 435.598 601.556 435.562 601.112C435.526 600.668 435.478 600.326 435.418 600.086C435.37 599.846 435.28 599.552 435.148 599.204C435.016 598.856 434.86 598.592 434.68 598.412C434.5 598.232 434.266 598.076 433.978 597.944ZM444.448 596.378V609.122H442.774V599.888H439.57V598.736C440.602 598.736 441.418 598.568 442.018 598.232C442.63 597.896 443.038 597.278 443.242 596.378H444.448ZM456.484 596.594V597.944H451.318L450.562 601.742C451.186 601.07 452.044 600.734 453.136 600.734C454.336 600.734 455.308 601.124 456.052 601.904C456.796 602.672 457.168 603.674 457.168 604.91C457.168 606.206 456.76 607.274 455.944 608.114C455.128 608.954 454.066 609.374 452.758 609.374C451.546 609.374 450.562 609.038 449.806 608.366C449.062 607.694 448.672 606.8 448.636 605.684H450.184C450.244 606.392 450.514 606.968 450.994 607.412C451.474 607.856 452.068 608.078 452.776 608.078C453.568 608.078 454.228 607.79 454.756 607.214C455.284 606.638 455.548 605.924 455.548 605.072C455.548 604.184 455.29 603.464 454.774 602.912C454.258 602.348 453.586 602.066 452.758 602.066C451.702 602.066 450.886 602.48 450.31 603.308L448.996 603.218L450.184 596.594H456.484Z" fill="#333333"/>
<path d="M250.766 607.736V609.122H242.45C242.486 608.414 242.594 607.796 242.774 607.268C242.954 606.74 243.23 606.266 243.602 605.846C243.986 605.414 244.358 605.06 244.718 604.784C245.078 604.508 245.588 604.166 246.248 603.758C247.28 603.11 247.958 602.624 248.282 602.3C248.954 601.64 249.29 600.908 249.29 600.104C249.29 599.396 249.062 598.82 248.606 598.376C248.15 597.92 247.556 597.692 246.824 597.692C245.948 597.692 245.318 597.998 244.934 598.61C244.562 599.21 244.364 599.972 244.34 600.896H242.792V600.554C242.792 599.294 243.164 598.28 243.908 597.512C244.664 596.744 245.66 596.36 246.896 596.36C248.108 596.36 249.074 596.696 249.794 597.368C250.514 598.04 250.874 598.94 250.874 600.068C250.874 600.548 250.79 601.004 250.622 601.436C250.466 601.856 250.286 602.21 250.082 602.498C249.89 602.786 249.59 603.092 249.182 603.416C248.786 603.74 248.456 603.992 248.192 604.172C247.928 604.34 247.55 604.574 247.058 604.874C246.074 605.462 245.42 605.918 245.096 606.242C244.64 606.698 244.346 607.196 244.214 607.736H250.766ZM256.988 596.36C257.756 596.36 258.41 596.504 258.95 596.792C259.502 597.068 259.922 597.41 260.21 597.818C260.498 598.226 260.726 598.76 260.894 599.42C261.062 600.068 261.164 600.656 261.2 601.184C261.236 601.7 261.254 602.324 261.254 603.056C261.254 603.728 261.224 604.334 261.164 604.874C261.116 605.414 261.002 605.978 260.822 606.566C260.654 607.154 260.42 607.646 260.12 608.042C259.82 608.426 259.412 608.744 258.896 608.996C258.38 609.248 257.768 609.374 257.06 609.374C256.316 609.374 255.668 609.248 255.116 608.996C254.576 608.732 254.156 608.408 253.856 608.024C253.556 607.64 253.316 607.154 253.136 606.566C252.968 605.966 252.86 605.402 252.812 604.874C252.764 604.334 252.74 603.716 252.74 603.02C252.74 602.42 252.752 601.898 252.776 601.454C252.812 601.01 252.872 600.512 252.956 599.96C253.052 599.396 253.196 598.922 253.388 598.538C253.58 598.142 253.826 597.77 254.126 597.422C254.426 597.074 254.816 596.81 255.296 596.63C255.788 596.45 256.352 596.36 256.988 596.36ZM257.978 597.944C257.69 597.8 257.36 597.728 256.988 597.728C256.616 597.728 256.286 597.8 255.998 597.944C255.71 598.076 255.476 598.232 255.296 598.412C255.116 598.592 254.96 598.862 254.828 599.222C254.696 599.57 254.6 599.864 254.54 600.104C254.492 600.344 254.45 600.692 254.414 601.148C254.378 601.592 254.36 601.91 254.36 602.102C254.36 602.282 254.36 602.588 254.36 603.02C254.36 603.44 254.366 603.788 254.378 604.064C254.39 604.34 254.42 604.7 254.468 605.144C254.516 605.588 254.6 605.96 254.72 606.26C254.84 606.548 254.99 606.842 255.17 607.142C255.35 607.43 255.596 607.652 255.908 607.808C256.232 607.952 256.604 608.024 257.024 608.024C257.384 608.024 257.702 607.958 257.978 607.826C258.266 607.694 258.5 607.538 258.68 607.358C258.86 607.178 259.01 606.926 259.13 606.602C259.262 606.266 259.358 605.978 259.418 605.738C259.478 605.486 259.52 605.156 259.544 604.748C259.58 604.328 259.598 604.022 259.598 603.83C259.61 603.626 259.616 603.332 259.616 602.948C259.616 602.528 259.616 602.228 259.616 602.048C259.616 601.868 259.598 601.556 259.562 601.112C259.526 600.668 259.478 600.326 259.418 600.086C259.37 599.846 259.28 599.552 259.148 599.204C259.016 598.856 258.86 598.592 258.68 598.412C258.5 598.232 258.266 598.076 257.978 597.944ZM268.448 596.378V609.122H266.774V599.888H263.57V598.736C264.602 598.736 265.418 598.568 266.018 598.232C266.63 597.896 267.038 597.278 267.242 596.378H268.448ZM280.772 607.736V609.122H272.456C272.492 608.414 272.6 607.796 272.78 607.268C272.96 606.74 273.236 606.266 273.608 605.846C273.992 605.414 274.364 605.06 274.724 604.784C275.084 604.508 275.594 604.166 276.254 603.758C277.286 603.11 277.964 602.624 278.288 602.3C278.96 601.64 279.296 600.908 279.296 600.104C279.296 599.396 279.068 598.82 278.612 598.376C278.156 597.92 277.562 597.692 276.83 597.692C275.954 597.692 275.324 597.998 274.94 598.61C274.568 599.21 274.37 599.972 274.346 600.896H272.798V600.554C272.798 599.294 273.17 598.28 273.914 597.512C274.67 596.744 275.666 596.36 276.902 596.36C278.114 596.36 279.08 596.696 279.8 597.368C280.52 598.04 280.88 598.94 280.88 600.068C280.88 600.548 280.796 601.004 280.628 601.436C280.472 601.856 280.292 602.21 280.088 602.498C279.896 602.786 279.596 603.092 279.188 603.416C278.792 603.74 278.462 603.992 278.198 604.172C277.934 604.34 277.556 604.574 277.064 604.874C276.08 605.462 275.426 605.918 275.102 606.242C274.646 606.698 274.352 607.196 274.22 607.736H280.772Z" fill="#333333"/>
<path d="M602.766 607.736V609.122H594.45C594.486 608.414 594.594 607.796 594.774 607.268C594.954 606.74 595.23 606.266 595.602 605.846C595.986 605.414 596.358 605.06 596.718 604.784C597.078 604.508 597.588 604.166 598.248 603.758C599.28 603.11 599.958 602.624 600.282 602.3C600.954 601.64 601.29 600.908 601.29 600.104C601.29 599.396 601.062 598.82 600.606 598.376C600.15 597.92 599.556 597.692 598.824 597.692C597.948 597.692 597.318 597.998 596.934 598.61C596.562 599.21 596.364 599.972 596.34 600.896H594.792V600.554C594.792 599.294 595.164 598.28 595.908 597.512C596.664 596.744 597.66 596.36 598.896 596.36C600.108 596.36 601.074 596.696 601.794 597.368C602.514 598.04 602.874 598.94 602.874 600.068C602.874 600.548 602.79 601.004 602.622 601.436C602.466 601.856 602.286 602.21 602.082 602.498C601.89 602.786 601.59 603.092 601.182 603.416C600.786 603.74 600.456 603.992 600.192 604.172C599.928 604.34 599.55 604.574 599.058 604.874C598.074 605.462 597.42 605.918 597.096 606.242C596.64 606.698 596.346 607.196 596.214 607.736H602.766ZM608.988 596.36C609.756 596.36 610.41 596.504 610.95 596.792C611.502 597.068 611.922 597.41 612.21 597.818C612.498 598.226 612.726 598.76 612.894 599.42C613.062 600.068 613.164 600.656 613.2 601.184C613.236 601.7 613.254 602.324 613.254 603.056C613.254 603.728 613.224 604.334 613.164 604.874C613.116 605.414 613.002 605.978 612.822 606.566C612.654 607.154 612.42 607.646 612.12 608.042C611.82 608.426 611.412 608.744 610.896 608.996C610.38 609.248 609.768 609.374 609.06 609.374C608.316 609.374 607.668 609.248 607.116 608.996C606.576 608.732 606.156 608.408 605.856 608.024C605.556 607.64 605.316 607.154 605.136 606.566C604.968 605.966 604.86 605.402 604.812 604.874C604.764 604.334 604.74 603.716 604.74 603.02C604.74 602.42 604.752 601.898 604.776 601.454C604.812 601.01 604.872 600.512 604.956 599.96C605.052 599.396 605.196 598.922 605.388 598.538C605.58 598.142 605.826 597.77 606.126 597.422C606.426 597.074 606.816 596.81 607.296 596.63C607.788 596.45 608.352 596.36 608.988 596.36ZM609.978 597.944C609.69 597.8 609.36 597.728 608.988 597.728C608.616 597.728 608.286 597.8 607.998 597.944C607.71 598.076 607.476 598.232 607.296 598.412C607.116 598.592 606.96 598.862 606.828 599.222C606.696 599.57 606.6 599.864 606.54 600.104C606.492 600.344 606.45 600.692 606.414 601.148C606.378 601.592 606.36 601.91 606.36 602.102C606.36 602.282 606.36 602.588 606.36 603.02C606.36 603.44 606.366 603.788 606.378 604.064C606.39 604.34 606.42 604.7 606.468 605.144C606.516 605.588 606.6 605.96 606.72 606.26C606.84 606.548 606.99 606.842 607.17 607.142C607.35 607.43 607.596 607.652 607.908 607.808C608.232 607.952 608.604 608.024 609.024 608.024C609.384 608.024 609.702 607.958 609.978 607.826C610.266 607.694 610.5 607.538 610.68 607.358C610.86 607.178 611.01 606.926 611.13 606.602C611.262 606.266 611.358 605.978 611.418 605.738C611.478 605.486 611.52 605.156 611.544 604.748C611.58 604.328 611.598 604.022 611.598 603.83C611.61 603.626 611.616 603.332 611.616 602.948C611.616 602.528 611.616 602.228 611.616 602.048C611.616 601.868 611.598 601.556 611.562 601.112C611.526 600.668 611.478 600.326 611.418 600.086C611.37 599.846 611.28 599.552 611.148 599.204C611.016 598.856 610.86 598.592 610.68 598.412C610.5 598.232 610.266 598.076 609.978 597.944ZM620.448 596.378V609.122H618.774V599.888H615.57V598.736C616.602 598.736 617.418 598.568 618.018 598.232C618.63 597.896 619.038 597.278 619.242 596.378H620.448ZM633.078 596.594V597.908C630.294 601.088 628.668 604.826 628.2 609.122H626.508C626.652 607.154 627.168 605.204 628.056 603.272C628.956 601.34 630.108 599.6 631.512 598.052H624.834V596.594H633.078Z" fill="#333333"/>
<path d="M778.766 607.736V609.122H770.45C770.486 608.414 770.594 607.796 770.774 607.268C770.954 606.74 771.23 606.266 771.602 605.846C771.986 605.414 772.358 605.06 772.718 604.784C773.078 604.508 773.588 604.166 774.248 603.758C775.28 603.11 775.958 602.624 776.282 602.3C776.954 601.64 777.29 600.908 777.29 600.104C777.29 599.396 777.062 598.82 776.606 598.376C776.15 597.92 775.556 597.692 774.824 597.692C773.948 597.692 773.318 597.998 772.934 598.61C772.562 599.21 772.364 599.972 772.34 600.896H770.792V600.554C770.792 599.294 771.164 598.28 771.908 597.512C772.664 596.744 773.66 596.36 774.896 596.36C776.108 596.36 777.074 596.696 777.794 597.368C778.514 598.04 778.874 598.94 778.874 600.068C778.874 600.548 778.79 601.004 778.622 601.436C778.466 601.856 778.286 602.21 778.082 602.498C777.89 602.786 777.59 603.092 777.182 603.416C776.786 603.74 776.456 603.992 776.192 604.172C775.928 604.34 775.55 604.574 775.058 604.874C774.074 605.462 773.42 605.918 773.096 606.242C772.64 606.698 772.346 607.196 772.214 607.736H778.766ZM784.988 596.36C785.756 596.36 786.41 596.504 786.95 596.792C787.502 597.068 787.922 597.41 788.21 597.818C788.498 598.226 788.726 598.76 788.894 599.42C789.062 600.068 789.164 600.656 789.2 601.184C789.236 601.7 789.254 602.324 789.254 603.056C789.254 603.728 789.224 604.334 789.164 604.874C789.116 605.414 789.002 605.978 788.822 606.566C788.654 607.154 788.42 607.646 788.12 608.042C787.82 608.426 787.412 608.744 786.896 608.996C786.38 609.248 785.768 609.374 785.06 609.374C784.316 609.374 783.668 609.248 783.116 608.996C782.576 608.732 782.156 608.408 781.856 608.024C781.556 607.64 781.316 607.154 781.136 606.566C780.968 605.966 780.86 605.402 780.812 604.874C780.764 604.334 780.74 603.716 780.74 603.02C780.74 602.42 780.752 601.898 780.776 601.454C780.812 601.01 780.872 600.512 780.956 599.96C781.052 599.396 781.196 598.922 781.388 598.538C781.58 598.142 781.826 597.77 782.126 597.422C782.426 597.074 782.816 596.81 783.296 596.63C783.788 596.45 784.352 596.36 784.988 596.36ZM785.978 597.944C785.69 597.8 785.36 597.728 784.988 597.728C784.616 597.728 784.286 597.8 783.998 597.944C783.71 598.076 783.476 598.232 783.296 598.412C783.116 598.592 782.96 598.862 782.828 599.222C782.696 599.57 782.6 599.864 782.54 600.104C782.492 600.344 782.45 600.692 782.414 601.148C782.378 601.592 782.36 601.91 782.36 602.102C782.36 602.282 782.36 602.588 782.36 603.02C782.36 603.44 782.366 603.788 782.378 604.064C782.39 604.34 782.42 604.7 782.468 605.144C782.516 605.588 782.6 605.96 782.72 606.26C782.84 606.548 782.99 606.842 783.17 607.142C783.35 607.43 783.596 607.652 783.908 607.808C784.232 607.952 784.604 608.024 785.024 608.024C785.384 608.024 785.702 607.958 785.978 607.826C786.266 607.694 786.5 607.538 786.68 607.358C786.86 607.178 787.01 606.926 787.13 606.602C787.262 606.266 787.358 605.978 787.418 605.738C787.478 605.486 787.52 605.156 787.544 604.748C787.58 604.328 787.598 604.022 787.598 603.83C787.61 603.626 787.616 603.332 787.616 602.948C787.616 602.528 787.616 602.228 787.616 602.048C787.616 601.868 787.598 601.556 787.562 601.112C787.526 600.668 787.478 600.326 787.418 600.086C787.37 599.846 787.28 599.552 787.148 599.204C787.016 598.856 786.86 598.592 786.68 598.412C786.5 598.232 786.266 598.076 785.978 597.944ZM796.448 596.378V609.122H794.774V599.888H791.57V598.736C792.602 598.736 793.418 598.568 794.018 598.232C794.63 597.896 795.038 597.278 795.242 596.378H796.448ZM800.906 606.044H802.418C802.502 606.668 802.748 607.16 803.156 607.52C803.576 607.868 804.11 608.042 804.758 608.042C806.426 608.042 807.374 606.656 807.602 603.884C807.626 603.632 807.638 603.35 807.638 603.038C806.918 604.202 805.88 604.784 804.524 604.784C803.36 604.784 802.418 604.406 801.698 603.65C800.978 602.882 800.618 601.88 800.618 600.644C800.618 599.372 801.008 598.34 801.788 597.548C802.568 596.756 803.582 596.36 804.83 596.36C807.758 596.36 809.222 598.436 809.222 602.588C809.222 603.224 809.18 603.836 809.096 604.424C809.024 605 808.886 605.6 808.682 606.224C808.478 606.836 808.214 607.37 807.89 607.826C807.566 608.282 807.128 608.654 806.576 608.942C806.036 609.23 805.412 609.374 804.704 609.374C803.624 609.374 802.736 609.08 802.04 608.492C801.356 607.904 800.978 607.088 800.906 606.044ZM804.758 597.728C804.002 597.728 803.39 597.992 802.922 598.52C802.466 599.036 802.238 599.726 802.238 600.59C802.238 601.406 802.454 602.084 802.886 602.624C803.33 603.152 803.954 603.416 804.758 603.416C805.538 603.416 806.168 603.164 806.648 602.66C807.128 602.144 807.368 601.466 807.368 600.626C807.368 599.75 807.128 599.048 806.648 598.52C806.168 597.992 805.538 597.728 804.758 597.728Z" fill="#333333"/>
<path d="M954.766 607.736V609.122H946.45C946.486 608.414 946.594 607.796 946.774 607.268C946.954 606.74 947.23 606.266 947.602 605.846C947.986 605.414 948.358 605.06 948.718 604.784C949.078 604.508 949.588 604.166 950.248 603.758C951.28 603.11 951.958 602.624 952.282 602.3C952.954 601.64 953.29 600.908 953.29 600.104C953.29 599.396 953.062 598.82 952.606 598.376C952.15 597.92 951.556 597.692 950.824 597.692C949.948 597.692 949.318 597.998 948.934 598.61C948.562 599.21 948.364 599.972 948.34 600.896H946.792V600.554C946.792 599.294 947.164 598.28 947.908 597.512C948.664 596.744 949.66 596.36 950.896 596.36C952.108 596.36 953.074 596.696 953.794 597.368C954.514 598.04 954.874 598.94 954.874 600.068C954.874 600.548 954.79 601.004 954.622 601.436C954.466 601.856 954.286 602.21 954.082 602.498C953.89 602.786 953.59 603.092 953.182 603.416C952.786 603.74 952.456 603.992 952.192 604.172C951.928 604.34 951.55 604.574 951.058 604.874C950.074 605.462 949.42 605.918 949.096 606.242C948.64 606.698 948.346 607.196 948.214 607.736H954.766ZM960.988 596.36C961.756 596.36 962.41 596.504 962.95 596.792C963.502 597.068 963.922 597.41 964.21 597.818C964.498 598.226 964.726 598.76 964.894 599.42C965.062 600.068 965.164 600.656 965.2 601.184C965.236 601.7 965.254 602.324 965.254 603.056C965.254 603.728 965.224 604.334 965.164 604.874C965.116 605.414 965.002 605.978 964.822 606.566C964.654 607.154 964.42 607.646 964.12 608.042C963.82 608.426 963.412 608.744 962.896 608.996C962.38 609.248 961.768 609.374 961.06 609.374C960.316 609.374 959.668 609.248 959.116 608.996C958.576 608.732 958.156 608.408 957.856 608.024C957.556 607.64 957.316 607.154 957.136 606.566C956.968 605.966 956.86 605.402 956.812 604.874C956.764 604.334 956.74 603.716 956.74 603.02C956.74 602.42 956.752 601.898 956.776 601.454C956.812 601.01 956.872 600.512 956.956 599.96C957.052 599.396 957.196 598.922 957.388 598.538C957.58 598.142 957.826 597.77 958.126 597.422C958.426 597.074 958.816 596.81 959.296 596.63C959.788 596.45 960.352 596.36 960.988 596.36ZM961.978 597.944C961.69 597.8 961.36 597.728 960.988 597.728C960.616 597.728 960.286 597.8 959.998 597.944C959.71 598.076 959.476 598.232 959.296 598.412C959.116 598.592 958.96 598.862 958.828 599.222C958.696 599.57 958.6 599.864 958.54 600.104C958.492 600.344 958.45 600.692 958.414 601.148C958.378 601.592 958.36 601.91 958.36 602.102C958.36 602.282 958.36 602.588 958.36 603.02C958.36 603.44 958.366 603.788 958.378 604.064C958.39 604.34 958.42 604.7 958.468 605.144C958.516 605.588 958.6 605.96 958.72 606.26C958.84 606.548 958.99 606.842 959.17 607.142C959.35 607.43 959.596 607.652 959.908 607.808C960.232 607.952 960.604 608.024 961.024 608.024C961.384 608.024 961.702 607.958 961.978 607.826C962.266 607.694 962.5 607.538 962.68 607.358C962.86 607.178 963.01 606.926 963.13 606.602C963.262 606.266 963.358 605.978 963.418 605.738C963.478 605.486 963.52 605.156 963.544 604.748C963.58 604.328 963.598 604.022 963.598 603.83C963.61 603.626 963.616 603.332 963.616 602.948C963.616 602.528 963.616 602.228 963.616 602.048C963.616 601.868 963.598 601.556 963.562 601.112C963.526 600.668 963.478 600.326 963.418 600.086C963.37 599.846 963.28 599.552 963.148 599.204C963.016 598.856 962.86 598.592 962.68 598.412C962.5 598.232 962.266 598.076 961.978 597.944ZM974.77 607.736V609.122H966.454C966.49 608.414 966.598 607.796 966.778 607.268C966.958 606.74 967.234 606.266 967.606 605.846C967.99 605.414 968.362 605.06 968.722 604.784C969.082 604.508 969.592 604.166 970.252 603.758C971.284 603.11 971.962 602.624 972.286 602.3C972.958 601.64 973.294 600.908 973.294 600.104C973.294 599.396 973.066 598.82 972.61 598.376C972.154 597.92 971.56 597.692 970.828 597.692C969.952 597.692 969.322 597.998 968.938 598.61C968.566 599.21 968.368 599.972 968.344 600.896H966.796V600.554C966.796 599.294 967.168 598.28 967.912 597.512C968.668 596.744 969.664 596.36 970.9 596.36C972.112 596.36 973.078 596.696 973.798 597.368C974.518 598.04 974.878 598.94 974.878 600.068C974.878 600.548 974.794 601.004 974.626 601.436C974.47 601.856 974.29 602.21 974.086 602.498C973.894 602.786 973.594 603.092 973.186 603.416C972.79 603.74 972.46 603.992 972.196 604.172C971.932 604.34 971.554 604.574 971.062 604.874C970.078 605.462 969.424 605.918 969.1 606.242C968.644 606.698 968.35 607.196 968.218 607.736H974.77ZM982.45 596.378V609.122H980.776V599.888H977.572V598.736C978.604 598.736 979.42 598.568 980.02 598.232C980.632 597.896 981.04 597.278 981.244 596.378H982.45Z" fill="#333333"/>
<line x1="7" y1="545.622" x2="1059" y2="545.622" stroke="#A1A1A1"/>
<line x1="1058.5" y1="546.122" x2="1058.5" y2="0.121582" stroke="#A1A1A1"/>
<path d="M11 458.998C11 458.998 220.362 459.46 352.587 444.65C454.509 433.235 514.84 428.545 608.659 393.236C701.588 358.263 747.146 325.583 822.923 268.488C888.709 218.92 974 127 974 127" stroke="#A3032B" stroke-width="2" stroke-linecap="round"/>
<line x1="87.5" y1="524" x2="87.5" y2="568" stroke="black" stroke-opacity="0.3"/>
<line x1="439.5" y1="524" x2="439.5" y2="568" stroke="#A1A1A1"/>
<line x1="263.5" y1="524" x2="263.5" y2="568" stroke="#A1A1A1"/>
<line x1="615.5" y1="524" x2="615.5" y2="568" stroke="#A1A1A1"/>
<line x1="791.5" y1="524" x2="791.5" y2="568" stroke="#A1A1A1"/>
<line x1="967.5" y1="524" x2="967.5" y2="568" stroke="#A1A1A1"/>
<line x1="1081" y1="400.622" x2="1037" y2="400.622" stroke="#A1A1A1"/>
<line x1="1081" y1="491.622" x2="1037" y2="491.622" stroke="#A1A1A1"/>
<line x1="1081" y1="36.6216" x2="1037" y2="36.6216" stroke="#A1A1A1"/>
<line x1="1081" y1="218.622" x2="1037" y2="218.622" stroke="#A1A1A1"/>
<line x1="1081" y1="309.622" x2="1037" y2="309.622" stroke="#A1A1A1"/>
<line x1="1081" y1="127.622" x2="1037" y2="127.622" stroke="#A1A1A1"/>
<path d="M1099.48 483.472V484.822H1094.31L1093.56 488.62C1094.18 487.948 1095.04 487.612 1096.13 487.612C1097.33 487.612 1098.3 488.002 1099.05 488.782C1099.79 489.55 1100.16 490.552 1100.16 491.788C1100.16 493.084 1099.75 494.152 1098.94 494.992C1098.12 495.832 1097.06 496.252 1095.75 496.252C1094.54 496.252 1093.56 495.916 1092.8 495.244C1092.06 494.572 1091.67 493.678 1091.63 492.562H1093.18C1093.24 493.27 1093.51 493.846 1093.99 494.29C1094.47 494.734 1095.06 494.956 1095.77 494.956C1096.56 494.956 1097.22 494.668 1097.75 494.092C1098.28 493.516 1098.54 492.802 1098.54 491.95C1098.54 491.062 1098.28 490.342 1097.77 489.79C1097.25 489.226 1096.58 488.944 1095.75 488.944C1094.7 488.944 1093.88 489.358 1093.3 490.186L1091.99 490.096L1093.18 483.472H1099.48ZM1105.99 483.238C1106.76 483.238 1107.41 483.382 1107.95 483.67C1108.5 483.946 1108.92 484.288 1109.21 484.696C1109.5 485.104 1109.73 485.638 1109.89 486.298C1110.06 486.946 1110.16 487.534 1110.2 488.062C1110.24 488.578 1110.25 489.202 1110.25 489.934C1110.25 490.606 1110.22 491.212 1110.16 491.752C1110.12 492.292 1110 492.856 1109.82 493.444C1109.65 494.032 1109.42 494.524 1109.12 494.92C1108.82 495.304 1108.41 495.622 1107.9 495.874C1107.38 496.126 1106.77 496.252 1106.06 496.252C1105.32 496.252 1104.67 496.126 1104.12 495.874C1103.58 495.61 1103.16 495.286 1102.86 494.902C1102.56 494.518 1102.32 494.032 1102.14 493.444C1101.97 492.844 1101.86 492.28 1101.81 491.752C1101.76 491.212 1101.74 490.594 1101.74 489.898C1101.74 489.298 1101.75 488.776 1101.78 488.332C1101.81 487.888 1101.87 487.39 1101.96 486.838C1102.05 486.274 1102.2 485.8 1102.39 485.416C1102.58 485.02 1102.83 484.648 1103.13 484.3C1103.43 483.952 1103.82 483.688 1104.3 483.508C1104.79 483.328 1105.35 483.238 1105.99 483.238ZM1106.98 484.822C1106.69 484.678 1106.36 484.606 1105.99 484.606C1105.62 484.606 1105.29 484.678 1105 484.822C1104.71 484.954 1104.48 485.11 1104.3 485.29C1104.12 485.47 1103.96 485.74 1103.83 486.1C1103.7 486.448 1103.6 486.742 1103.54 486.982C1103.49 487.222 1103.45 487.57 1103.41 488.026C1103.38 488.47 1103.36 488.788 1103.36 488.98C1103.36 489.16 1103.36 489.466 1103.36 489.898C1103.36 490.318 1103.37 490.666 1103.38 490.942C1103.39 491.218 1103.42 491.578 1103.47 492.022C1103.52 492.466 1103.6 492.838 1103.72 493.138C1103.84 493.426 1103.99 493.72 1104.17 494.02C1104.35 494.308 1104.6 494.53 1104.91 494.686C1105.23 494.83 1105.6 494.902 1106.02 494.902C1106.38 494.902 1106.7 494.836 1106.98 494.704C1107.27 494.572 1107.5 494.416 1107.68 494.236C1107.86 494.056 1108.01 493.804 1108.13 493.48C1108.26 493.144 1108.36 492.856 1108.42 492.616C1108.48 492.364 1108.52 492.034 1108.54 491.626C1108.58 491.206 1108.6 490.9 1108.6 490.708C1108.61 490.504 1108.62 490.21 1108.62 489.826C1108.62 489.406 1108.62 489.106 1108.62 488.926C1108.62 488.746 1108.6 488.434 1108.56 487.99C1108.53 487.546 1108.48 487.204 1108.42 486.964C1108.37 486.724 1108.28 486.43 1108.15 486.082C1108.02 485.734 1107.86 485.47 1107.68 485.29C1107.5 485.11 1107.27 484.954 1106.98 484.822ZM1124.09 482.842L1116.91 496.612H1115.68L1122.9 482.842H1124.09ZM1115.65 483.202C1116.56 483.202 1117.26 483.496 1117.74 484.084C1118.23 484.672 1118.47 485.524 1118.47 486.64C1118.47 487.864 1118.23 488.8 1117.74 489.448C1117.24 490.096 1116.52 490.42 1115.58 490.42C1113.64 490.42 1112.68 489.208 1112.68 486.784C1112.68 485.644 1112.94 484.762 1113.45 484.138C1113.97 483.514 1114.7 483.202 1115.65 483.202ZM1117.12 486.712C1117.12 485.068 1116.61 484.246 1115.58 484.246C1114.54 484.246 1114.03 485.122 1114.03 486.874C1114.03 488.554 1114.54 489.394 1115.58 489.394C1116.61 489.394 1117.12 488.5 1117.12 486.712ZM1124.61 489.052C1125.52 489.052 1126.22 489.346 1126.7 489.934C1127.19 490.522 1127.44 491.374 1127.44 492.49C1127.44 493.714 1127.19 494.65 1126.7 495.298C1126.21 495.946 1125.49 496.27 1124.54 496.27C1122.61 496.27 1121.64 495.058 1121.64 492.634C1121.64 491.494 1121.9 490.612 1122.42 489.988C1122.93 489.364 1123.66 489.052 1124.61 489.052ZM1126.09 492.562C1126.09 490.918 1125.57 490.096 1124.54 490.096C1123.51 490.096 1122.99 490.972 1122.99 492.724C1122.99 494.404 1123.51 495.244 1124.54 495.244C1125.57 495.244 1126.09 494.35 1126.09 492.562Z" fill="#333333"/>
<path d="M1097.44 392.256V405H1095.77V395.766H1092.57V394.614C1093.6 394.614 1094.41 394.446 1095.01 394.11C1095.63 393.774 1096.03 393.156 1096.24 392.256H1097.44ZM1105.99 392.238C1106.76 392.238 1107.41 392.382 1107.95 392.67C1108.5 392.946 1108.92 393.288 1109.21 393.696C1109.5 394.104 1109.73 394.638 1109.89 395.298C1110.06 395.946 1110.16 396.534 1110.2 397.062C1110.24 397.578 1110.25 398.202 1110.25 398.934C1110.25 399.606 1110.22 400.212 1110.16 400.752C1110.12 401.292 1110 401.856 1109.82 402.444C1109.65 403.032 1109.42 403.524 1109.12 403.92C1108.82 404.304 1108.41 404.622 1107.9 404.874C1107.38 405.126 1106.77 405.252 1106.06 405.252C1105.32 405.252 1104.67 405.126 1104.12 404.874C1103.58 404.61 1103.16 404.286 1102.86 403.902C1102.56 403.518 1102.32 403.032 1102.14 402.444C1101.97 401.844 1101.86 401.28 1101.81 400.752C1101.76 400.212 1101.74 399.594 1101.74 398.898C1101.74 398.298 1101.75 397.776 1101.78 397.332C1101.81 396.888 1101.87 396.39 1101.96 395.838C1102.05 395.274 1102.2 394.8 1102.39 394.416C1102.58 394.02 1102.83 393.648 1103.13 393.3C1103.43 392.952 1103.82 392.688 1104.3 392.508C1104.79 392.328 1105.35 392.238 1105.99 392.238ZM1106.98 393.822C1106.69 393.678 1106.36 393.606 1105.99 393.606C1105.62 393.606 1105.29 393.678 1105 393.822C1104.71 393.954 1104.48 394.11 1104.3 394.29C1104.12 394.47 1103.96 394.74 1103.83 395.1C1103.7 395.448 1103.6 395.742 1103.54 395.982C1103.49 396.222 1103.45 396.57 1103.41 397.026C1103.38 397.47 1103.36 397.788 1103.36 397.98C1103.36 398.16 1103.36 398.466 1103.36 398.898C1103.36 399.318 1103.37 399.666 1103.38 399.942C1103.39 400.218 1103.42 400.578 1103.47 401.022C1103.52 401.466 1103.6 401.838 1103.72 402.138C1103.84 402.426 1103.99 402.72 1104.17 403.02C1104.35 403.308 1104.6 403.53 1104.91 403.686C1105.23 403.83 1105.6 403.902 1106.02 403.902C1106.38 403.902 1106.7 403.836 1106.98 403.704C1107.27 403.572 1107.5 403.416 1107.68 403.236C1107.86 403.056 1108.01 402.804 1108.13 402.48C1108.26 402.144 1108.36 401.856 1108.42 401.616C1108.48 401.364 1108.52 401.034 1108.54 400.626C1108.58 400.206 1108.6 399.9 1108.6 399.708C1108.61 399.504 1108.62 399.21 1108.62 398.826C1108.62 398.406 1108.62 398.106 1108.62 397.926C1108.62 397.746 1108.6 397.434 1108.56 396.99C1108.53 396.546 1108.48 396.204 1108.42 395.964C1108.37 395.724 1108.28 395.43 1108.15 395.082C1108.02 394.734 1107.86 394.47 1107.68 394.29C1107.5 394.11 1107.27 393.954 1106.98 393.822ZM1115.99 392.238C1116.76 392.238 1117.41 392.382 1117.95 392.67C1118.5 392.946 1118.92 393.288 1119.21 393.696C1119.5 394.104 1119.73 394.638 1119.9 395.298C1120.06 395.946 1120.17 396.534 1120.2 397.062C1120.24 397.578 1120.26 398.202 1120.26 398.934C1120.26 399.606 1120.23 400.212 1120.17 400.752C1120.12 401.292 1120 401.856 1119.82 402.444C1119.66 403.032 1119.42 403.524 1119.12 403.92C1118.82 404.304 1118.41 404.622 1117.9 404.874C1117.38 405.126 1116.77 405.252 1116.06 405.252C1115.32 405.252 1114.67 405.126 1114.12 404.874C1113.58 404.61 1113.16 404.286 1112.86 403.902C1112.56 403.518 1112.32 403.032 1112.14 402.444C1111.97 401.844 1111.86 401.28 1111.81 400.752C1111.77 400.212 1111.74 399.594 1111.74 398.898C1111.74 398.298 1111.75 397.776 1111.78 397.332C1111.81 396.888 1111.87 396.39 1111.96 395.838C1112.05 395.274 1112.2 394.8 1112.39 394.416C1112.58 394.02 1112.83 393.648 1113.13 393.3C1113.43 392.952 1113.82 392.688 1114.3 392.508C1114.79 392.328 1115.35 392.238 1115.99 392.238ZM1116.98 393.822C1116.69 393.678 1116.36 393.606 1115.99 393.606C1115.62 393.606 1115.29 393.678 1115 393.822C1114.71 393.954 1114.48 394.11 1114.3 394.29C1114.12 394.47 1113.96 394.74 1113.83 395.1C1113.7 395.448 1113.6 395.742 1113.54 395.982C1113.49 396.222 1113.45 396.57 1113.42 397.026C1113.38 397.47 1113.36 397.788 1113.36 397.98C1113.36 398.16 1113.36 398.466 1113.36 398.898C1113.36 399.318 1113.37 399.666 1113.38 399.942C1113.39 400.218 1113.42 400.578 1113.47 401.022C1113.52 401.466 1113.6 401.838 1113.72 402.138C1113.84 402.426 1113.99 402.72 1114.17 403.02C1114.35 403.308 1114.6 403.53 1114.91 403.686C1115.23 403.83 1115.61 403.902 1116.03 403.902C1116.39 403.902 1116.7 403.836 1116.98 403.704C1117.27 403.572 1117.5 403.416 1117.68 403.236C1117.86 403.056 1118.01 402.804 1118.13 402.48C1118.26 402.144 1118.36 401.856 1118.42 401.616C1118.48 401.364 1118.52 401.034 1118.55 400.626C1118.58 400.206 1118.6 399.9 1118.6 399.708C1118.61 399.504 1118.62 399.21 1118.62 398.826C1118.62 398.406 1118.62 398.106 1118.62 397.926C1118.62 397.746 1118.6 397.434 1118.56 396.99C1118.53 396.546 1118.48 396.204 1118.42 395.964C1118.37 395.724 1118.28 395.43 1118.15 395.082C1118.02 394.734 1117.86 394.47 1117.68 394.29C1117.5 394.11 1117.27 393.954 1116.98 393.822ZM1134.09 391.842L1126.91 405.612H1125.69L1132.9 391.842H1134.09ZM1125.65 392.202C1126.56 392.202 1127.26 392.496 1127.74 393.084C1128.23 393.672 1128.48 394.524 1128.48 395.64C1128.48 396.864 1128.23 397.8 1127.74 398.448C1127.25 399.096 1126.53 399.42 1125.58 399.42C1123.65 399.42 1122.68 398.208 1122.68 395.784C1122.68 394.644 1122.94 393.762 1123.45 393.138C1123.97 392.514 1124.7 392.202 1125.65 392.202ZM1127.13 395.712C1127.13 394.068 1126.61 393.246 1125.58 393.246C1124.55 393.246 1124.03 394.122 1124.03 395.874C1124.03 397.554 1124.55 398.394 1125.58 398.394C1126.61 398.394 1127.13 397.5 1127.13 395.712ZM1134.61 398.052C1135.53 398.052 1136.22 398.346 1136.7 398.934C1137.19 399.522 1137.44 400.374 1137.44 401.49C1137.44 402.714 1137.19 403.65 1136.7 404.298C1136.21 404.946 1135.49 405.27 1134.54 405.27C1132.61 405.27 1131.64 404.058 1131.64 401.634C1131.64 400.494 1131.9 399.612 1132.42 398.988C1132.93 398.364 1133.67 398.052 1134.61 398.052ZM1136.09 401.562C1136.09 399.918 1135.57 399.096 1134.54 399.096C1133.51 399.096 1132.99 399.972 1132.99 401.724C1132.99 403.404 1133.51 404.244 1134.54 404.244C1135.57 404.244 1136.09 403.35 1136.09 401.562Z" fill="#333333"/>
<path d="M1097.44 301.256V314H1095.77V304.766H1092.57V303.614C1093.6 303.614 1094.41 303.446 1095.01 303.11C1095.63 302.774 1096.03 302.156 1096.24 301.256H1097.44ZM1109.48 301.472V302.822H1104.31L1103.56 306.62C1104.18 305.948 1105.04 305.612 1106.13 305.612C1107.33 305.612 1108.3 306.002 1109.05 306.782C1109.79 307.55 1110.16 308.552 1110.16 309.788C1110.16 311.084 1109.76 312.152 1108.94 312.992C1108.12 313.832 1107.06 314.252 1105.75 314.252C1104.54 314.252 1103.56 313.916 1102.8 313.244C1102.06 312.572 1101.67 311.678 1101.63 310.562H1103.18C1103.24 311.27 1103.51 311.846 1103.99 312.29C1104.47 312.734 1105.06 312.956 1105.77 312.956C1106.56 312.956 1107.22 312.668 1107.75 312.092C1108.28 311.516 1108.54 310.802 1108.54 309.95C1108.54 309.062 1108.29 308.342 1107.77 307.79C1107.25 307.226 1106.58 306.944 1105.75 306.944C1104.7 306.944 1103.88 307.358 1103.31 308.186L1101.99 308.096L1103.18 301.472H1109.48ZM1115.99 301.238C1116.76 301.238 1117.41 301.382 1117.95 301.67C1118.5 301.946 1118.92 302.288 1119.21 302.696C1119.5 303.104 1119.73 303.638 1119.9 304.298C1120.06 304.946 1120.17 305.534 1120.2 306.062C1120.24 306.578 1120.26 307.202 1120.26 307.934C1120.26 308.606 1120.23 309.212 1120.17 309.752C1120.12 310.292 1120 310.856 1119.82 311.444C1119.66 312.032 1119.42 312.524 1119.12 312.92C1118.82 313.304 1118.41 313.622 1117.9 313.874C1117.38 314.126 1116.77 314.252 1116.06 314.252C1115.32 314.252 1114.67 314.126 1114.12 313.874C1113.58 313.61 1113.16 313.286 1112.86 312.902C1112.56 312.518 1112.32 312.032 1112.14 311.444C1111.97 310.844 1111.86 310.28 1111.81 309.752C1111.77 309.212 1111.74 308.594 1111.74 307.898C1111.74 307.298 1111.75 306.776 1111.78 306.332C1111.81 305.888 1111.87 305.39 1111.96 304.838C1112.05 304.274 1112.2 303.8 1112.39 303.416C1112.58 303.02 1112.83 302.648 1113.13 302.3C1113.43 301.952 1113.82 301.688 1114.3 301.508C1114.79 301.328 1115.35 301.238 1115.99 301.238ZM1116.98 302.822C1116.69 302.678 1116.36 302.606 1115.99 302.606C1115.62 302.606 1115.29 302.678 1115 302.822C1114.71 302.954 1114.48 303.11 1114.3 303.29C1114.12 303.47 1113.96 303.74 1113.83 304.1C1113.7 304.448 1113.6 304.742 1113.54 304.982C1113.49 305.222 1113.45 305.57 1113.42 306.026C1113.38 306.47 1113.36 306.788 1113.36 306.98C1113.36 307.16 1113.36 307.466 1113.36 307.898C1113.36 308.318 1113.37 308.666 1113.38 308.942C1113.39 309.218 1113.42 309.578 1113.47 310.022C1113.52 310.466 1113.6 310.838 1113.72 311.138C1113.84 311.426 1113.99 311.72 1114.17 312.02C1114.35 312.308 1114.6 312.53 1114.91 312.686C1115.23 312.83 1115.61 312.902 1116.03 312.902C1116.39 312.902 1116.7 312.836 1116.98 312.704C1117.27 312.572 1117.5 312.416 1117.68 312.236C1117.86 312.056 1118.01 311.804 1118.13 311.48C1118.26 311.144 1118.36 310.856 1118.42 310.616C1118.48 310.364 1118.52 310.034 1118.55 309.626C1118.58 309.206 1118.6 308.9 1118.6 308.708C1118.61 308.504 1118.62 308.21 1118.62 307.826C1118.62 307.406 1118.62 307.106 1118.62 306.926C1118.62 306.746 1118.6 306.434 1118.56 305.99C1118.53 305.546 1118.48 305.204 1118.42 304.964C1118.37 304.724 1118.28 304.43 1118.15 304.082C1118.02 303.734 1117.86 303.47 1117.68 303.29C1117.5 303.11 1117.27 302.954 1116.98 302.822ZM1134.09 300.842L1126.91 314.612H1125.69L1132.9 300.842H1134.09ZM1125.65 301.202C1126.56 301.202 1127.26 301.496 1127.74 302.084C1128.23 302.672 1128.48 303.524 1128.48 304.64C1128.48 305.864 1128.23 306.8 1127.74 307.448C1127.25 308.096 1126.53 308.42 1125.58 308.42C1123.65 308.42 1122.68 307.208 1122.68 304.784C1122.68 303.644 1122.94 302.762 1123.45 302.138C1123.97 301.514 1124.7 301.202 1125.65 301.202ZM1127.13 304.712C1127.13 303.068 1126.61 302.246 1125.58 302.246C1124.55 302.246 1124.03 303.122 1124.03 304.874C1124.03 306.554 1124.55 307.394 1125.58 307.394C1126.61 307.394 1127.13 306.5 1127.13 304.712ZM1134.61 307.052C1135.53 307.052 1136.22 307.346 1136.7 307.934C1137.19 308.522 1137.44 309.374 1137.44 310.49C1137.44 311.714 1137.19 312.65 1136.7 313.298C1136.21 313.946 1135.49 314.27 1134.54 314.27C1132.61 314.27 1131.64 313.058 1131.64 310.634C1131.64 309.494 1131.9 308.612 1132.42 307.988C1132.93 307.364 1133.67 307.052 1134.61 307.052ZM1136.09 310.562C1136.09 308.918 1135.57 308.096 1134.54 308.096C1133.51 308.096 1132.99 308.972 1132.99 310.724C1132.99 312.404 1133.51 313.244 1134.54 313.244C1135.57 313.244 1136.09 312.35 1136.09 310.562Z" fill="#333333"/>
<path d="M1099.77 221.614V223H1091.45C1091.49 222.292 1091.59 221.674 1091.77 221.146C1091.95 220.618 1092.23 220.144 1092.6 219.724C1092.99 219.292 1093.36 218.938 1093.72 218.662C1094.08 218.386 1094.59 218.044 1095.25 217.636C1096.28 216.988 1096.96 216.502 1097.28 216.178C1097.95 215.518 1098.29 214.786 1098.29 213.982C1098.29 213.274 1098.06 212.698 1097.61 212.254C1097.15 211.798 1096.56 211.57 1095.82 211.57C1094.95 211.57 1094.32 211.876 1093.93 212.488C1093.56 213.088 1093.36 213.85 1093.34 214.774H1091.79V214.432C1091.79 213.172 1092.16 212.158 1092.91 211.39C1093.66 210.622 1094.66 210.238 1095.9 210.238C1097.11 210.238 1098.07 210.574 1098.79 211.246C1099.51 211.918 1099.87 212.818 1099.87 213.946C1099.87 214.426 1099.79 214.882 1099.62 215.314C1099.47 215.734 1099.29 216.088 1099.08 216.376C1098.89 216.664 1098.59 216.97 1098.18 217.294C1097.79 217.618 1097.46 217.87 1097.19 218.05C1096.93 218.218 1096.55 218.452 1096.06 218.752C1095.07 219.34 1094.42 219.796 1094.1 220.12C1093.64 220.576 1093.35 221.074 1093.21 221.614H1099.77ZM1105.99 210.238C1106.76 210.238 1107.41 210.382 1107.95 210.67C1108.5 210.946 1108.92 211.288 1109.21 211.696C1109.5 212.104 1109.73 212.638 1109.89 213.298C1110.06 213.946 1110.16 214.534 1110.2 215.062C1110.24 215.578 1110.25 216.202 1110.25 216.934C1110.25 217.606 1110.22 218.212 1110.16 218.752C1110.12 219.292 1110 219.856 1109.82 220.444C1109.65 221.032 1109.42 221.524 1109.12 221.92C1108.82 222.304 1108.41 222.622 1107.9 222.874C1107.38 223.126 1106.77 223.252 1106.06 223.252C1105.32 223.252 1104.67 223.126 1104.12 222.874C1103.58 222.61 1103.16 222.286 1102.86 221.902C1102.56 221.518 1102.32 221.032 1102.14 220.444C1101.97 219.844 1101.86 219.28 1101.81 218.752C1101.76 218.212 1101.74 217.594 1101.74 216.898C1101.74 216.298 1101.75 215.776 1101.78 215.332C1101.81 214.888 1101.87 214.39 1101.96 213.838C1102.05 213.274 1102.2 212.8 1102.39 212.416C1102.58 212.02 1102.83 211.648 1103.13 211.3C1103.43 210.952 1103.82 210.688 1104.3 210.508C1104.79 210.328 1105.35 210.238 1105.99 210.238ZM1106.98 211.822C1106.69 211.678 1106.36 211.606 1105.99 211.606C1105.62 211.606 1105.29 211.678 1105 211.822C1104.71 211.954 1104.48 212.11 1104.3 212.29C1104.12 212.47 1103.96 212.74 1103.83 213.1C1103.7 213.448 1103.6 213.742 1103.54 213.982C1103.49 214.222 1103.45 214.57 1103.41 215.026C1103.38 215.47 1103.36 215.788 1103.36 215.98C1103.36 216.16 1103.36 216.466 1103.36 216.898C1103.36 217.318 1103.37 217.666 1103.38 217.942C1103.39 218.218 1103.42 218.578 1103.47 219.022C1103.52 219.466 1103.6 219.838 1103.72 220.138C1103.84 220.426 1103.99 220.72 1104.17 221.02C1104.35 221.308 1104.6 221.53 1104.91 221.686C1105.23 221.83 1105.6 221.902 1106.02 221.902C1106.38 221.902 1106.7 221.836 1106.98 221.704C1107.27 221.572 1107.5 221.416 1107.68 221.236C1107.86 221.056 1108.01 220.804 1108.13 220.48C1108.26 220.144 1108.36 219.856 1108.42 219.616C1108.48 219.364 1108.52 219.034 1108.54 218.626C1108.58 218.206 1108.6 217.9 1108.6 217.708C1108.61 217.504 1108.62 217.21 1108.62 216.826C1108.62 216.406 1108.62 216.106 1108.62 215.926C1108.62 215.746 1108.6 215.434 1108.56 214.99C1108.53 214.546 1108.48 214.204 1108.42 213.964C1108.37 213.724 1108.28 213.43 1108.15 213.082C1108.02 212.734 1107.86 212.47 1107.68 212.29C1107.5 212.11 1107.27 211.954 1106.98 211.822ZM1115.99 210.238C1116.76 210.238 1117.41 210.382 1117.95 210.67C1118.5 210.946 1118.92 211.288 1119.21 211.696C1119.5 212.104 1119.73 212.638 1119.9 213.298C1120.06 213.946 1120.17 214.534 1120.2 215.062C1120.24 215.578 1120.26 216.202 1120.26 216.934C1120.26 217.606 1120.23 218.212 1120.17 218.752C1120.12 219.292 1120 219.856 1119.82 220.444C1119.66 221.032 1119.42 221.524 1119.12 221.92C1118.82 222.304 1118.41 222.622 1117.9 222.874C1117.38 223.126 1116.77 223.252 1116.06 223.252C1115.32 223.252 1114.67 223.126 1114.12 222.874C1113.58 222.61 1113.16 222.286 1112.86 221.902C1112.56 221.518 1112.32 221.032 1112.14 220.444C1111.97 219.844 1111.86 219.28 1111.81 218.752C1111.77 218.212 1111.74 217.594 1111.74 216.898C1111.74 216.298 1111.75 215.776 1111.78 215.332C1111.81 214.888 1111.87 214.39 1111.96 213.838C1112.05 213.274 1112.2 212.8 1112.39 212.416C1112.58 212.02 1112.83 211.648 1113.13 211.3C1113.43 210.952 1113.82 210.688 1114.3 210.508C1114.79 210.328 1115.35 210.238 1115.99 210.238ZM1116.98 211.822C1116.69 211.678 1116.36 211.606 1115.99 211.606C1115.62 211.606 1115.29 211.678 1115 211.822C1114.71 211.954 1114.48 212.11 1114.3 212.29C1114.12 212.47 1113.96 212.74 1113.83 213.1C1113.7 213.448 1113.6 213.742 1113.54 213.982C1113.49 214.222 1113.45 214.57 1113.42 215.026C1113.38 215.47 1113.36 215.788 1113.36 215.98C1113.36 216.16 1113.36 216.466 1113.36 216.898C1113.36 217.318 1113.37 217.666 1113.38 217.942C1113.39 218.218 1113.42 218.578 1113.47 219.022C1113.52 219.466 1113.6 219.838 1113.72 220.138C1113.84 220.426 1113.99 220.72 1114.17 221.02C1114.35 221.308 1114.6 221.53 1114.91 221.686C1115.23 221.83 1115.61 221.902 1116.03 221.902C1116.39 221.902 1116.7 221.836 1116.98 221.704C1117.27 221.572 1117.5 221.416 1117.68 221.236C1117.86 221.056 1118.01 220.804 1118.13 220.48C1118.26 220.144 1118.36 219.856 1118.42 219.616C1118.48 219.364 1118.52 219.034 1118.55 218.626C1118.58 218.206 1118.6 217.9 1118.6 217.708C1118.61 217.504 1118.62 217.21 1118.62 216.826C1118.62 216.406 1118.62 216.106 1118.62 215.926C1118.62 215.746 1118.6 215.434 1118.56 214.99C1118.53 214.546 1118.48 214.204 1118.42 213.964C1118.37 213.724 1118.28 213.43 1118.15 213.082C1118.02 212.734 1117.86 212.47 1117.68 212.29C1117.5 212.11 1117.27 211.954 1116.98 211.822ZM1134.09 209.842L1126.91 223.612H1125.69L1132.9 209.842H1134.09ZM1125.65 210.202C1126.56 210.202 1127.26 210.496 1127.74 211.084C1128.23 211.672 1128.48 212.524 1128.48 213.64C1128.48 214.864 1128.23 215.8 1127.74 216.448C1127.25 217.096 1126.53 217.42 1125.58 217.42C1123.65 217.42 1122.68 216.208 1122.68 213.784C1122.68 212.644 1122.94 211.762 1123.45 211.138C1123.97 210.514 1124.7 210.202 1125.65 210.202ZM1127.13 213.712C1127.13 212.068 1126.61 211.246 1125.58 211.246C1124.55 211.246 1124.03 212.122 1124.03 213.874C1124.03 215.554 1124.55 216.394 1125.58 216.394C1126.61 216.394 1127.13 215.5 1127.13 213.712ZM1134.61 216.052C1135.53 216.052 1136.22 216.346 1136.7 216.934C1137.19 217.522 1137.44 218.374 1137.44 219.49C1137.44 220.714 1137.19 221.65 1136.7 222.298C1136.21 222.946 1135.49 223.27 1134.54 223.27C1132.61 223.27 1131.64 222.058 1131.64 219.634C1131.64 218.494 1131.9 217.612 1132.42 216.988C1132.93 216.364 1133.67 216.052 1134.61 216.052ZM1136.09 219.562C1136.09 217.918 1135.57 217.096 1134.54 217.096C1133.51 217.096 1132.99 217.972 1132.99 219.724C1132.99 221.404 1133.51 222.244 1134.54 222.244C1135.57 222.244 1136.09 221.35 1136.09 219.562Z" fill="#333333"/>
<path d="M1099.77 130.614V132H1091.45C1091.49 131.292 1091.59 130.674 1091.77 130.146C1091.95 129.618 1092.23 129.144 1092.6 128.724C1092.99 128.292 1093.36 127.938 1093.72 127.662C1094.08 127.386 1094.59 127.044 1095.25 126.636C1096.28 125.988 1096.96 125.502 1097.28 125.178C1097.95 124.518 1098.29 123.786 1098.29 122.982C1098.29 122.274 1098.06 121.698 1097.61 121.254C1097.15 120.798 1096.56 120.57 1095.82 120.57C1094.95 120.57 1094.32 120.876 1093.93 121.488C1093.56 122.088 1093.36 122.85 1093.34 123.774H1091.79V123.432C1091.79 122.172 1092.16 121.158 1092.91 120.39C1093.66 119.622 1094.66 119.238 1095.9 119.238C1097.11 119.238 1098.07 119.574 1098.79 120.246C1099.51 120.918 1099.87 121.818 1099.87 122.946C1099.87 123.426 1099.79 123.882 1099.62 124.314C1099.47 124.734 1099.29 125.088 1099.08 125.376C1098.89 125.664 1098.59 125.97 1098.18 126.294C1097.79 126.618 1097.46 126.87 1097.19 127.05C1096.93 127.218 1096.55 127.452 1096.06 127.752C1095.07 128.34 1094.42 128.796 1094.1 129.12C1093.64 129.576 1093.35 130.074 1093.21 130.614H1099.77ZM1109.48 119.472V120.822H1104.31L1103.56 124.62C1104.18 123.948 1105.04 123.612 1106.13 123.612C1107.33 123.612 1108.3 124.002 1109.05 124.782C1109.79 125.55 1110.16 126.552 1110.16 127.788C1110.16 129.084 1109.76 130.152 1108.94 130.992C1108.12 131.832 1107.06 132.252 1105.75 132.252C1104.54 132.252 1103.56 131.916 1102.8 131.244C1102.06 130.572 1101.67 129.678 1101.63 128.562H1103.18C1103.24 129.27 1103.51 129.846 1103.99 130.29C1104.47 130.734 1105.06 130.956 1105.77 130.956C1106.56 130.956 1107.22 130.668 1107.75 130.092C1108.28 129.516 1108.54 128.802 1108.54 127.95C1108.54 127.062 1108.29 126.342 1107.77 125.79C1107.25 125.226 1106.58 124.944 1105.75 124.944C1104.7 124.944 1103.88 125.358 1103.31 126.186L1101.99 126.096L1103.18 119.472H1109.48ZM1115.99 119.238C1116.76 119.238 1117.41 119.382 1117.95 119.67C1118.5 119.946 1118.92 120.288 1119.21 120.696C1119.5 121.104 1119.73 121.638 1119.9 122.298C1120.06 122.946 1120.17 123.534 1120.2 124.062C1120.24 124.578 1120.26 125.202 1120.26 125.934C1120.26 126.606 1120.23 127.212 1120.17 127.752C1120.12 128.292 1120 128.856 1119.82 129.444C1119.66 130.032 1119.42 130.524 1119.12 130.92C1118.82 131.304 1118.41 131.622 1117.9 131.874C1117.38 132.126 1116.77 132.252 1116.06 132.252C1115.32 132.252 1114.67 132.126 1114.12 131.874C1113.58 131.61 1113.16 131.286 1112.86 130.902C1112.56 130.518 1112.32 130.032 1112.14 129.444C1111.97 128.844 1111.86 128.28 1111.81 127.752C1111.77 127.212 1111.74 126.594 1111.74 125.898C1111.74 125.298 1111.75 124.776 1111.78 124.332C1111.81 123.888 1111.87 123.39 1111.96 122.838C1112.05 122.274 1112.2 121.8 1112.39 121.416C1112.58 121.02 1112.83 120.648 1113.13 120.3C1113.43 119.952 1113.82 119.688 1114.3 119.508C1114.79 119.328 1115.35 119.238 1115.99 119.238ZM1116.98 120.822C1116.69 120.678 1116.36 120.606 1115.99 120.606C1115.62 120.606 1115.29 120.678 1115 120.822C1114.71 120.954 1114.48 121.11 1114.3 121.29C1114.12 121.47 1113.96 121.74 1113.83 122.1C1113.7 122.448 1113.6 122.742 1113.54 122.982C1113.49 123.222 1113.45 123.57 1113.42 124.026C1113.38 124.47 1113.36 124.788 1113.36 124.98C1113.36 125.16 1113.36 125.466 1113.36 125.898C1113.36 126.318 1113.37 126.666 1113.38 126.942C1113.39 127.218 1113.42 127.578 1113.47 128.022C1113.52 128.466 1113.6 128.838 1113.72 129.138C1113.84 129.426 1113.99 129.72 1114.17 130.02C1114.35 130.308 1114.6 130.53 1114.91 130.686C1115.23 130.83 1115.61 130.902 1116.03 130.902C1116.39 130.902 1116.7 130.836 1116.98 130.704C1117.27 130.572 1117.5 130.416 1117.68 130.236C1117.86 130.056 1118.01 129.804 1118.13 129.48C1118.26 129.144 1118.36 128.856 1118.42 128.616C1118.48 128.364 1118.52 128.034 1118.55 127.626C1118.58 127.206 1118.6 126.9 1118.6 126.708C1118.61 126.504 1118.62 126.21 1118.62 125.826C1118.62 125.406 1118.62 125.106 1118.62 124.926C1118.62 124.746 1118.6 124.434 1118.56 123.99C1118.53 123.546 1118.48 123.204 1118.42 122.964C1118.37 122.724 1118.28 122.43 1118.15 122.082C1118.02 121.734 1117.86 121.47 1117.68 121.29C1117.5 121.11 1117.27 120.954 1116.98 120.822ZM1134.09 118.842L1126.91 132.612H1125.69L1132.9 118.842H1134.09ZM1125.65 119.202C1126.56 119.202 1127.26 119.496 1127.74 120.084C1128.23 120.672 1128.48 121.524 1128.48 122.64C1128.48 123.864 1128.23 124.8 1127.74 125.448C1127.25 126.096 1126.53 126.42 1125.58 126.42C1123.65 126.42 1122.68 125.208 1122.68 122.784C1122.68 121.644 1122.94 120.762 1123.45 120.138C1123.97 119.514 1124.7 119.202 1125.65 119.202ZM1127.13 122.712C1127.13 121.068 1126.61 120.246 1125.58 120.246C1124.55 120.246 1124.03 121.122 1124.03 122.874C1124.03 124.554 1124.55 125.394 1125.58 125.394C1126.61 125.394 1127.13 124.5 1127.13 122.712ZM1134.61 125.052C1135.53 125.052 1136.22 125.346 1136.7 125.934C1137.19 126.522 1137.44 127.374 1137.44 128.49C1137.44 129.714 1137.19 130.65 1136.7 131.298C1136.21 131.946 1135.49 132.27 1134.54 132.27C1132.61 132.27 1131.64 131.058 1131.64 128.634C1131.64 127.494 1131.9 126.612 1132.42 125.988C1132.93 125.364 1133.67 125.052 1134.61 125.052ZM1136.09 128.562C1136.09 126.918 1135.57 126.096 1134.54 126.096C1133.51 126.096 1132.99 126.972 1132.99 128.724C1132.99 130.404 1133.51 131.244 1134.54 131.244C1135.57 131.244 1136.09 130.35 1136.09 128.562Z" fill="#333333"/>
<path d="M1092.83 32.378C1092.86 31.058 1093.23 30.038 1093.93 29.318C1094.63 28.598 1095.62 28.238 1096.88 28.238C1098.01 28.238 1098.91 28.544 1099.6 29.156C1100.28 29.768 1100.62 30.572 1100.62 31.568C1100.62 32.168 1100.47 32.708 1100.15 33.188C1099.85 33.656 1099.43 34.004 1098.88 34.232C1099.6 34.4 1100.17 34.76 1100.59 35.312C1101.01 35.864 1101.22 36.53 1101.22 37.31C1101.23 38.486 1100.82 39.44 1099.99 40.172C1099.18 40.892 1098.11 41.252 1096.81 41.252C1095.51 41.252 1094.47 40.898 1093.69 40.19C1092.92 39.47 1092.54 38.504 1092.54 37.292V37.058H1094.05C1094.09 37.97 1094.35 38.672 1094.83 39.164C1095.31 39.656 1095.97 39.902 1096.82 39.902C1097.64 39.902 1098.3 39.674 1098.8 39.218C1099.32 38.75 1099.58 38.15 1099.58 37.418C1099.58 36.674 1099.32 36.08 1098.8 35.636C1098.3 35.192 1097.62 34.97 1096.75 34.97C1096.54 34.97 1096.26 34.994 1095.92 35.042V33.746C1096.09 33.758 1096.27 33.764 1096.45 33.764C1097.24 33.764 1097.86 33.578 1098.32 33.206C1098.79 32.822 1099.02 32.306 1099.02 31.658C1099.02 31.034 1098.82 30.53 1098.41 30.146C1098.01 29.762 1097.48 29.57 1096.81 29.57C1096.04 29.57 1095.44 29.816 1095.01 30.308C1094.57 30.788 1094.35 31.478 1094.32 32.378H1092.83ZM1106.99 28.238C1107.76 28.238 1108.41 28.382 1108.95 28.67C1109.5 28.946 1109.92 29.288 1110.21 29.696C1110.5 30.104 1110.73 30.638 1110.89 31.298C1111.06 31.946 1111.16 32.534 1111.2 33.062C1111.24 33.578 1111.25 34.202 1111.25 34.934C1111.25 35.606 1111.22 36.212 1111.16 36.752C1111.12 37.292 1111 37.856 1110.82 38.444C1110.65 39.032 1110.42 39.524 1110.12 39.92C1109.82 40.304 1109.41 40.622 1108.9 40.874C1108.38 41.126 1107.77 41.252 1107.06 41.252C1106.32 41.252 1105.67 41.126 1105.12 40.874C1104.58 40.61 1104.16 40.286 1103.86 39.902C1103.56 39.518 1103.32 39.032 1103.14 38.444C1102.97 37.844 1102.86 37.28 1102.81 36.752C1102.76 36.212 1102.74 35.594 1102.74 34.898C1102.74 34.298 1102.75 33.776 1102.78 33.332C1102.81 32.888 1102.87 32.39 1102.96 31.838C1103.05 31.274 1103.2 30.8 1103.39 30.416C1103.58 30.02 1103.83 29.648 1104.13 29.3C1104.43 28.952 1104.82 28.688 1105.3 28.508C1105.79 28.328 1106.35 28.238 1106.99 28.238ZM1107.98 29.822C1107.69 29.678 1107.36 29.606 1106.99 29.606C1106.62 29.606 1106.29 29.678 1106 29.822C1105.71 29.954 1105.48 30.11 1105.3 30.29C1105.12 30.47 1104.96 30.74 1104.83 31.1C1104.7 31.448 1104.6 31.742 1104.54 31.982C1104.49 32.222 1104.45 32.57 1104.41 33.026C1104.38 33.47 1104.36 33.788 1104.36 33.98C1104.36 34.16 1104.36 34.466 1104.36 34.898C1104.36 35.318 1104.37 35.666 1104.38 35.942C1104.39 36.218 1104.42 36.578 1104.47 37.022C1104.52 37.466 1104.6 37.838 1104.72 38.138C1104.84 38.426 1104.99 38.72 1105.17 39.02C1105.35 39.308 1105.6 39.53 1105.91 39.686C1106.23 39.83 1106.6 39.902 1107.02 39.902C1107.38 39.902 1107.7 39.836 1107.98 39.704C1108.27 39.572 1108.5 39.416 1108.68 39.236C1108.86 39.056 1109.01 38.804 1109.13 38.48C1109.26 38.144 1109.36 37.856 1109.42 37.616C1109.48 37.364 1109.52 37.034 1109.54 36.626C1109.58 36.206 1109.6 35.9 1109.6 35.708C1109.61 35.504 1109.62 35.21 1109.62 34.826C1109.62 34.406 1109.62 34.106 1109.62 33.926C1109.62 33.746 1109.6 33.434 1109.56 32.99C1109.53 32.546 1109.48 32.204 1109.42 31.964C1109.37 31.724 1109.28 31.43 1109.15 31.082C1109.02 30.734 1108.86 30.47 1108.68 30.29C1108.5 30.11 1108.27 29.954 1107.98 29.822ZM1116.99 28.238C1117.76 28.238 1118.41 28.382 1118.95 28.67C1119.5 28.946 1119.92 29.288 1120.21 29.696C1120.5 30.104 1120.73 30.638 1120.9 31.298C1121.06 31.946 1121.17 32.534 1121.2 33.062C1121.24 33.578 1121.26 34.202 1121.26 34.934C1121.26 35.606 1121.23 36.212 1121.17 36.752C1121.12 37.292 1121 37.856 1120.82 38.444C1120.66 39.032 1120.42 39.524 1120.12 39.92C1119.82 40.304 1119.41 40.622 1118.9 40.874C1118.38 41.126 1117.77 41.252 1117.06 41.252C1116.32 41.252 1115.67 41.126 1115.12 40.874C1114.58 40.61 1114.16 40.286 1113.86 39.902C1113.56 39.518 1113.32 39.032 1113.14 38.444C1112.97 37.844 1112.86 37.28 1112.81 36.752C1112.77 36.212 1112.74 35.594 1112.74 34.898C1112.74 34.298 1112.75 33.776 1112.78 33.332C1112.81 32.888 1112.87 32.39 1112.96 31.838C1113.05 31.274 1113.2 30.8 1113.39 30.416C1113.58 30.02 1113.83 29.648 1114.13 29.3C1114.43 28.952 1114.82 28.688 1115.3 28.508C1115.79 28.328 1116.35 28.238 1116.99 28.238ZM1117.98 29.822C1117.69 29.678 1117.36 29.606 1116.99 29.606C1116.62 29.606 1116.29 29.678 1116 29.822C1115.71 29.954 1115.48 30.11 1115.3 30.29C1115.12 30.47 1114.96 30.74 1114.83 31.1C1114.7 31.448 1114.6 31.742 1114.54 31.982C1114.49 32.222 1114.45 32.57 1114.42 33.026C1114.38 33.47 1114.36 33.788 1114.36 33.98C1114.36 34.16 1114.36 34.466 1114.36 34.898C1114.36 35.318 1114.37 35.666 1114.38 35.942C1114.39 36.218 1114.42 36.578 1114.47 37.022C1114.52 37.466 1114.6 37.838 1114.72 38.138C1114.84 38.426 1114.99 38.72 1115.17 39.02C1115.35 39.308 1115.6 39.53 1115.91 39.686C1116.23 39.83 1116.61 39.902 1117.03 39.902C1117.39 39.902 1117.7 39.836 1117.98 39.704C1118.27 39.572 1118.5 39.416 1118.68 39.236C1118.86 39.056 1119.01 38.804 1119.13 38.48C1119.26 38.144 1119.36 37.856 1119.42 37.616C1119.48 37.364 1119.52 37.034 1119.55 36.626C1119.58 36.206 1119.6 35.9 1119.6 35.708C1119.61 35.504 1119.62 35.21 1119.62 34.826C1119.62 34.406 1119.62 34.106 1119.62 33.926C1119.62 33.746 1119.6 33.434 1119.56 32.99C1119.53 32.546 1119.48 32.204 1119.42 31.964C1119.37 31.724 1119.28 31.43 1119.15 31.082C1119.02 30.734 1118.86 30.47 1118.68 30.29C1118.5 30.11 1118.27 29.954 1117.98 29.822ZM1135.09 27.842L1127.91 41.612H1126.69L1133.9 27.842H1135.09ZM1126.65 28.202C1127.56 28.202 1128.26 28.496 1128.74 29.084C1129.23 29.672 1129.48 30.524 1129.48 31.64C1129.48 32.864 1129.23 33.8 1128.74 34.448C1128.25 35.096 1127.53 35.42 1126.58 35.42C1124.65 35.42 1123.68 34.208 1123.68 31.784C1123.68 30.644 1123.94 29.762 1124.45 29.138C1124.97 28.514 1125.7 28.202 1126.65 28.202ZM1128.13 31.712C1128.13 30.068 1127.61 29.246 1126.58 29.246C1125.55 29.246 1125.03 30.122 1125.03 31.874C1125.03 33.554 1125.55 34.394 1126.58 34.394C1127.61 34.394 1128.13 33.5 1128.13 31.712ZM1135.61 34.052C1136.53 34.052 1137.22 34.346 1137.7 34.934C1138.19 35.522 1138.44 36.374 1138.44 37.49C1138.44 38.714 1138.19 39.65 1137.7 40.298C1137.21 40.946 1136.49 41.27 1135.54 41.27C1133.61 41.27 1132.64 40.058 1132.64 37.634C1132.64 36.494 1132.9 35.612 1133.42 34.988C1133.93 34.364 1134.67 34.052 1135.61 34.052ZM1137.09 37.562C1137.09 35.918 1136.57 35.096 1135.54 35.096C1134.51 35.096 1133.99 35.972 1133.99 37.724C1133.99 39.404 1134.51 40.244 1135.54 40.244C1136.57 40.244 1137.09 39.35 1137.09 37.562Z" fill="#333333"/>
<circle cx="263" cy="452" r="12.5" fill="white" stroke="#A3032B" stroke-width="5"/>
<circle cx="439" cy="434" r="12.5" fill="white" stroke="#A3032B" stroke-width="5"/>
<circle cx="615" cy="392" r="12.5" fill="white" stroke="#A3032B" stroke-width="5"/>
<circle cx="791" cy="293" r="12.5" fill="white" stroke="#A3032B" stroke-width="5"/>
<circle cx="967" cy="137" r="12.5" fill="white" stroke="#A3032B" stroke-width="5"/>
</svg>