<svg width="32" height="33" viewBox="0 0 32 33" fill="none" xmlns="http://www.w3.org/2000/svg">
<path d="M16 18.9216C14.5 18.9216 13.2 17.7216 13.2 16.1216C13.2 14.6216 14.4 13.3216 16 13.3216C17.5 13.3216 18.8 14.5216 18.8 16.1216C18.8 17.6216 17.5 18.9216 16 18.9216Z" fill="white"/>
<path fill-rule="evenodd" clip-rule="evenodd" d="M19.4 9.32158H12.6C11.8 9.42158 11.4 9.52158 11.1 9.62158C10.7 9.72158 10.4 9.92158 10.1 10.2216C9.86261 10.459 9.75045 10.6964 9.61489 10.9833C9.57916 11.0589 9.5417 11.1382 9.5 11.2216C9.48453 11.268 9.46667 11.3168 9.44752 11.3691C9.34291 11.6549 9.2 12.0453 9.2 12.7216V19.5216C9.3 20.3216 9.4 20.7216 9.5 21.0216C9.6 21.4216 9.8 21.7216 10.1 22.0216C10.3374 22.259 10.5748 22.3711 10.8617 22.5067C10.9374 22.5424 11.0165 22.5798 11.1 22.6216C11.1464 22.637 11.1952 22.6549 11.2475 22.6741C11.5333 22.7787 11.9238 22.9216 12.6 22.9216H19.4C20.2 22.8216 20.6 22.7216 20.9 22.6216C21.3 22.5216 21.6 22.3216 21.9 22.0216C22.1374 21.7842 22.2495 21.5468 22.3851 21.2599C22.4209 21.1842 22.4583 21.105 22.5 21.0216C22.5155 20.9752 22.5333 20.9264 22.5525 20.8741C22.6571 20.5882 22.8 20.1978 22.8 19.5216V12.7216C22.7 11.9216 22.6 11.5216 22.5 11.2216C22.4 10.8216 22.2 10.5216 21.9 10.2216C21.6626 9.98419 21.4252 9.87203 21.1383 9.73647C21.0627 9.70076 20.9833 9.66325 20.9 9.62158C20.8536 9.60611 20.8048 9.58825 20.7525 9.5691C20.4667 9.46449 20.0762 9.32158 19.4 9.32158ZM16 11.8216C13.6 11.8216 11.7 13.7216 11.7 16.1216C11.7 18.5216 13.6 20.4216 16 20.4216C18.4 20.4216 20.3 18.5216 20.3 16.1216C20.3 13.7216 18.4 11.8216 16 11.8216ZM21.4 11.7216C21.4 12.2739 20.9523 12.7216 20.4 12.7216C19.8477 12.7216 19.4 12.2739 19.4 11.7216C19.4 11.1693 19.8477 10.7216 20.4 10.7216C20.9523 10.7216 21.4 11.1693 21.4 11.7216Z" fill="white"/>
<path fill-rule="evenodd" clip-rule="evenodd" d="M0 16.1216C0 7.28503 7.16344 0.121582 16 0.121582C24.8366 0.121582 32 7.28503 32 16.1216C32 24.9581 24.8366 32.1216 16 32.1216C7.16344 32.1216 0 24.9581 0 16.1216ZM12.6 7.82158H19.4C20.3 7.92158 20.9 8.02158 21.4 8.22158C22 8.52158 22.4 8.72158 22.9 9.22158C23.4 9.72158 23.7 10.2216 23.9 10.7216C24.1 11.2216 24.3 11.8216 24.3 12.7216V19.5216C24.2 20.4216 24.1 21.0216 23.9 21.5216C23.6 22.1216 23.4 22.5216 22.9 23.0216C22.4 23.5216 21.9 23.8216 21.4 24.0216C20.9 24.2216 20.3 24.4216 19.4 24.4216H12.6C11.7 24.3216 11.1 24.2216 10.6 24.0216C10 23.7216 9.6 23.5216 9.1 23.0216C8.6 22.5216 8.3 22.0216 8.1 21.5216C7.9 21.0216 7.7 20.4216 7.7 19.5216V12.7216C7.8 11.8216 7.9 11.2216 8.1 10.7216C8.4 10.1216 8.6 9.72158 9.1 9.22158C9.6 8.72158 10.1 8.42158 10.6 8.22158C11.1 8.02158 11.7 7.82158 12.6 7.82158Z" fill="white"/>
</svg>
