<svg width="24" height="25" viewBox="0 0 24 25" fill="none" xmlns="http://www.w3.org/2000/svg">
<path d="M9 11.1216C9 11.9172 9.31607 12.6803 9.87868 13.2429C10.4413 13.8055 11.2044 14.1216 12 14.1216C12.7956 14.1216 13.5587 13.8055 14.1213 13.2429C14.6839 12.6803 15 11.9172 15 11.1216C15 10.3259 14.6839 9.56287 14.1213 9.00026C13.5587 8.43765 12.7956 8.12158 12 8.12158C11.2044 8.12158 10.4413 8.43765 9.87868 9.00026C9.31607 9.56287 9 10.3259 9 11.1216Z" stroke="white" stroke-width="2" stroke-linecap="round" stroke-linejoin="round"/>
<path d="M17.657 16.7786L13.414 21.0216C13.039 21.3962 12.5306 21.6067 12.0005 21.6067C11.4704 21.6067 10.962 21.3962 10.587 21.0216L6.343 16.7786C5.22422 15.6598 4.46234 14.2343 4.15369 12.6825C3.84504 11.1306 4.00349 9.52211 4.60901 8.06032C5.21452 6.59854 6.2399 5.34913 7.55548 4.4701C8.87107 3.59107 10.4178 3.12189 12 3.12189C13.5822 3.12189 15.1289 3.59107 16.4445 4.4701C17.7601 5.34913 18.7855 6.59854 19.391 8.06032C19.9965 9.52211 20.155 11.1306 19.8463 12.6825C19.5377 14.2343 18.7758 15.6598 17.657 16.7786Z" stroke="white" stroke-width="2" stroke-linecap="round" stroke-linejoin="round"/>
</svg>
