<svg width="70" height="71" viewBox="0 0 70 71" fill="none" xmlns="http://www.w3.org/2000/svg">
<path d="M53.5618 13.6431C58.3811 18.4618 61.1374 24.9659 61.2479 31.7801C61.3584 38.5943 58.8144 45.1844 54.1539 50.1568L53.5618 50.7693L41.1864 63.1418C39.6162 64.7111 37.5081 65.6248 35.2894 65.6979C33.0706 65.771 30.907 64.9981 29.2368 63.5356L28.8168 63.1418L16.4385 50.7664C11.5156 45.8436 8.75 39.1667 8.75 32.2048C8.75 25.2428 11.5156 18.5659 16.4385 13.6431C21.3614 8.72022 28.0382 5.95459 35.0002 5.95459C41.9621 5.95459 48.639 8.72022 53.5618 13.6431ZM35.0002 23.4548C33.8511 23.4548 32.7133 23.6811 31.6517 24.1208C30.5901 24.5605 29.6255 25.2051 28.813 26.0176C28.0005 26.8301 27.3559 27.7947 26.9162 28.8563C26.4765 29.9179 26.2502 31.0557 26.2502 32.2048C26.2502 33.3538 26.4765 34.4916 26.9162 35.5532C27.3559 36.6148 28.0005 37.5794 28.813 38.3919C29.6255 39.2044 30.5901 39.849 31.6517 40.2887C32.7133 40.7284 33.8511 40.9548 35.0002 40.9548C37.3208 40.9548 39.5464 40.0329 41.1873 38.3919C42.8283 36.751 43.7502 34.5254 43.7502 32.2048C43.7502 29.8841 42.8283 27.6585 41.1873 26.0176C39.5464 24.3766 37.3208 23.4548 35.0002 23.4548Z" fill="#A3032B"/>
<path d="M35.0002 23.4548C33.8511 23.4548 32.7133 23.6811 31.6517 24.1208C30.5901 24.5605 29.6255 25.2051 28.813 26.0176C28.0005 26.8301 27.3559 27.7947 26.9162 28.8563C26.4765 29.9179 26.2502 31.0557 26.2502 32.2048C26.2502 33.3538 26.4765 34.4916 26.9162 35.5532C27.3559 36.6148 28.0005 37.5794 28.813 38.3919C29.6255 39.2044 30.5901 39.849 31.6517 40.2887C32.7133 40.7284 33.8511 40.9548 35.0002 40.9548C37.3208 40.9548 39.5464 40.0329 41.1873 38.3919C42.8283 36.751 43.7502 34.5254 43.7502 32.2048C43.7502 29.8841 42.8283 27.6585 41.1873 26.0176C39.5464 24.3766 37.3208 23.4548 35.0002 23.4548Z" fill="white"/>
</svg>