<svg width="64" height="51" viewBox="0 0 64 51" fill="none" xmlns="http://www.w3.org/2000/svg">
<path opacity="0.3" d="M43.1142 26.7392C40.6278 25.6608 38.6884 24.0431 37.296 21.8863C35.9036 19.7294 35.2075 17.1804 35.2075 14.2392C35.2075 10.0235 36.5501 6.59217 39.2354 3.94512C41.9207 1.39609 45.352 0.12158 49.5291 0.121581C53.7063 0.121581 57.1873 1.44511 59.972 4.09217C62.6573 6.73923 64 10.1216 64 14.2392C64 16.2 63.7514 18.1608 63.2541 20.1216C62.7568 22.0824 61.6628 25.0235 59.972 28.9451L51.3193 50.1216L36.5501 50.1216L43.1142 26.7392ZM7.90675 26.7392C5.42035 25.6608 3.48096 24.0431 2.08857 21.8863C0.696185 19.7294 -4.74959e-06 17.1804 -4.49246e-06 14.2392C-4.12391e-06 10.0235 1.34265 6.59217 4.02797 3.94511C6.71328 1.39609 10.1445 0.121577 14.3217 0.121578C18.4988 0.121578 21.9798 1.44511 24.7646 4.09216C27.4499 6.73922 28.7925 10.1216 28.7925 14.2392C28.7925 16.2 28.5439 18.1608 28.0466 20.1216C27.5493 22.0824 26.4553 25.0235 24.7646 28.9451L16.1119 50.1216L1.34265 50.1216L7.90675 26.7392Z" fill="#191919"/>
</svg>